<svg xmlns="http://www.w3.org/2000/svg" width="1100" height="700" viewBox="0 0 1100 700">
<rect width="100%" height="100%" fill="white"/>
<text x="100" y="25" font-family="sans-serif" font-size="18">driver-adc-rate-before: -20000…20000 µs</text>
<text x="10" y="115" font-family="sans-serif" font-size="12">CH1 SCK</text>
<path d="M100,175H1060" stroke="#ddd"/>
<path d="M100,125.5H1060" stroke="#ddd"/>
<path d="M100,76.0H1060" stroke="#ddd"/>
<path d="M100,177.40V172.60 M101,178.60V172.60 M102,177.40V173.80 M103,178.60V172.60 M104,177.40V172.60 M105,177.40V173.80 M106,177.40V173.80 M107,178.60V172.60 M108,178.60V172.60 M109,178.60V172.60 M110,178.60V172.60 M111,178.60V172.60 M112,177.40V173.80 M113,177.40V172.60 M114,178.60V172.60 M115,177.40V172.60 M116,177.40V172.60 M117,178.60V173.80 M118,178.60V172.60 M119,178.60V173.80 M120,178.60V172.60 M121,178.60V172.60 M122,177.40V172.60 M123,177.40V173.80 M124,178.60V172.60 M125,178.60V172.60 M126,178.60V173.80 M127,178.60V172.60 M128,177.40V173.80 M129,177.40V171.40 M130,178.60V173.80 M131,178.60V173.80 M132,177.40V172.60 M133,177.40V172.60 M134,178.60V172.60 M135,177.40V172.60 M136,177.40V173.80 M137,178.60V173.80 M138,178.60V172.60 M139,177.40V172.60 M140,178.60V173.80 M141,177.40V173.80 M142,177.40V173.80 M143,177.40V172.60 M144,178.60V173.80 M145,177.40V173.80 M146,178.60V172.60 M147,177.40V173.80 M148,178.60V173.80 M149,178.60V172.60 M150,178.60V172.60 M151,178.60V173.80 M152,178.60V172.60 M153,178.60V171.40 M154,177.40V173.80 M155,178.60V173.80 M156,178.60V171.40 M157,177.40V173.80 M158,178.60V173.80 M159,179.80V172.60 M160,178.60V172.60 M161,178.60V172.60 M162,178.60V172.60 M163,178.60V172.60 M164,178.60V172.60 M165,177.40V172.60 M166,177.40V172.60 M167,178.60V172.60 M168,178.60V172.60 M169,177.40V173.80 M170,177.40V172.60 M171,178.60V75.40 M172,177.40V75.40 M173,178.60V75.40 M174,178.60V75.40 M175,177.40V74.20 M176,178.60V75.40 M177,178.60V75.40 M178,179.80V75.40 M179,178.60V76.60 M180,178.60V172.60 M181,177.40V173.80 M182,177.40V172.60 M183,178.60V172.60 M184,178.60V172.60 M185,178.60V173.80 M186,178.60V172.60 M187,177.40V172.60 M188,178.60V172.60 M189,178.60V172.60 M190,178.60V172.60 M191,177.40V172.60 M192,177.40V173.80 M193,177.40V172.60 M194,178.60V172.60 M195,178.60V172.60 M196,178.60V173.80 M197,178.60V172.60 M198,178.60V171.40 M199,178.60V173.80 M200,178.60V172.60 M201,177.40V173.80 M202,178.60V172.60 M203,178.60V173.80 M204,177.40V172.60 M205,178.60V173.80 M206,178.60V173.80 M207,178.60V173.80 M208,178.60V172.60 M209,178.60V173.80 M210,178.60V171.40 M211,178.60V173.80 M212,178.60V173.80 M213,178.60V172.60 M214,178.60V172.60 M215,177.40V173.80 M216,179.80V172.60 M217,177.40V173.80 M218,178.60V173.80 M219,177.40V172.60 M220,179.80V172.60 M221,177.40V172.60 M222,178.60V173.80 M223,178.60V173.80 M224,177.40V172.60 M225,177.40V172.60 M226,177.40V172.60 M227,178.60V172.60 M228,177.40V173.80 M229,178.60V171.40 M230,177.40V173.80 M231,178.60V171.40 M232,178.60V172.60 M233,178.60V172.60 M234,178.60V173.80 M235,178.60V173.80 M236,178.60V172.60 M237,179.80V173.80 M238,178.60V173.80 M239,177.40V172.60 M240,177.40V172.60 M241,178.60V173.80 M242,178.60V173.80 M243,178.60V172.60 M244,178.60V173.80 M245,177.40V172.60 M246,178.60V173.80 M247,178.60V172.60 M248,178.60V172.60 M249,178.60V172.60 M250,178.60V173.80 M251,177.40V173.80 M252,177.40V173.80 M253,178.60V173.80 M254,177.40V172.60 M255,178.60V173.80 M256,177.40V172.60 M257,178.60V172.60 M258,178.60V172.60 M259,178.60V172.60 M260,178.60V173.80 M261,178.60V172.60 M262,178.60V172.60 M263,177.40V173.80 M264,178.60V172.60 M265,177.40V173.80 M266,177.40V173.80 M267,178.60V173.80 M268,177.40V172.60 M269,177.40V172.60 M270,178.60V173.80 M271,178.60V172.60 M272,177.40V173.80 M273,178.60V172.60 M274,178.60V173.80 M275,177.40V172.60 M276,178.60V173.80 M277,178.60V172.60 M278,179.80V173.80 M279,178.60V172.60 M280,178.60V172.60 M281,177.40V173.80 M282,178.60V173.80 M283,177.40V171.40 M284,177.40V172.60 M285,178.60V173.80 M286,178.60V172.60 M287,178.60V171.40 M288,178.60V173.80 M289,177.40V172.60 M290,177.40V172.60 M291,178.60V172.60 M292,178.60V173.80 M293,178.60V172.60 M294,178.60V172.60 M295,179.80V172.60 M296,177.40V173.80 M297,177.40V172.60 M298,178.60V173.80 M299,178.60V172.60 M300,177.40V173.80 M301,177.40V172.60 M302,178.60V172.60 M303,177.40V173.80 M304,178.60V173.80 M305,177.40V172.60 M306,178.60V172.60 M307,178.60V172.60 M308,179.80V172.60 M309,179.80V172.60 M310,177.40V171.40 M311,178.60V172.60 M312,178.60V172.60 M313,178.60V172.60 M314,177.40V173.80 M315,177.40V172.60 M316,178.60V170.20 M317,178.60V172.60 M318,177.40V172.60 M319,177.40V172.60 M320,178.60V172.60 M321,178.60V172.60 M322,178.60V172.60 M323,178.60V172.60 M324,178.60V173.80 M325,178.60V172.60 M326,177.40V173.80 M327,177.40V172.60 M328,177.40V172.60 M329,178.60V172.60 M330,178.60V172.60 M331,177.40V171.40 M332,178.60V172.60 M333,178.60V172.60 M334,177.40V172.60 M335,178.60V173.80 M336,177.40V173.80 M337,178.60V172.60 M338,178.60V172.60 M339,178.60V173.80 M340,178.60V172.60 M341,178.60V173.80 M342,178.60V172.60 M343,177.40V172.60 M344,178.60V173.80 M345,178.60V172.60 M346,178.60V173.80 M347,177.40V173.80 M348,177.40V173.80 M349,178.60V172.60 M350,177.40V173.80 M351,178.60V173.80 M352,177.40V172.60 M353,177.40V173.80 M354,178.60V172.60 M355,177.40V175.00 M356,177.40V172.60 M357,177.40V172.60 M358,178.60V172.60 M359,178.60V172.60 M360,178.60V173.80 M361,178.60V173.80 M362,177.40V172.60 M363,178.60V173.80 M364,178.60V172.60 M365,178.60V172.60 M366,177.40V173.80 M367,178.60V172.60 M368,179.80V172.60 M369,178.60V173.80 M370,178.60V172.60 M371,178.60V173.80 M372,179.80V173.80 M373,178.60V173.80 M374,177.40V173.80 M375,179.80V173.80 M376,177.40V173.80 M377,177.40V172.60 M378,177.40V172.60 M379,178.60V172.60 M380,178.60V173.80 M381,178.60V172.60 M382,178.60V171.40 M383,178.60V172.60 M384,178.60V172.60 M385,178.60V172.60 M386,179.80V173.80 M387,177.40V173.80 M388,178.60V173.80 M389,178.60V172.60 M390,179.80V172.60 M391,179.80V173.80 M392,178.60V172.60 M393,178.60V173.80 M394,178.60V172.60 M395,178.60V172.60 M396,177.40V172.60 M397,178.60V172.60 M398,178.60V172.60 M399,178.60V172.60 M400,178.60V173.80 M401,178.60V172.60 M402,178.60V172.60 M403,178.60V173.80 M404,178.60V172.60 M405,177.40V172.60 M406,178.60V172.60 M407,178.60V173.80 M408,177.40V173.80 M409,177.40V172.60 M410,177.40V172.60 M411,178.60V172.60 M412,178.60V172.60 M413,178.60V172.60 M414,178.60V172.60 M415,178.60V172.60 M416,178.60V173.80 M417,178.60V173.80 M418,177.40V172.60 M419,178.60V172.60 M420,177.40V172.60 M421,177.40V173.80 M422,178.60V173.80 M423,179.80V172.60 M424,178.60V172.60 M425,178.60V173.80 M426,178.60V173.80 M427,178.60V173.80 M428,178.60V173.80 M429,178.60V172.60 M430,177.40V173.80 M431,178.60V173.80 M432,177.40V172.60 M433,177.40V172.60 M434,178.60V173.80 M435,178.60V172.60 M436,178.60V173.80 M437,178.60V172.60 M438,177.40V173.80 M439,177.40V173.80 M440,178.60V173.80 M441,178.60V173.80 M442,178.60V172.60 M443,177.40V172.60 M444,177.40V172.60 M445,178.60V173.80 M446,177.40V172.60 M447,178.60V173.80 M448,177.40V173.80 M449,178.60V173.80 M450,177.40V172.60 M451,179.80V172.60 M452,178.60V172.60 M453,178.60V171.40 M454,179.80V172.60 M455,179.80V173.80 M456,178.60V173.80 M457,178.60V173.80 M458,178.60V172.60 M459,177.40V173.80 M460,178.60V173.80 M461,178.60V173.80 M462,177.40V172.60 M463,179.80V173.80 M464,178.60V173.80 M465,177.40V172.60 M466,178.60V173.80 M467,179.80V173.80 M468,179.80V172.60 M469,177.40V172.60 M470,177.40V172.60 M471,178.60V172.60 M472,177.40V172.60 M473,178.60V172.60 M474,178.60V172.60 M475,177.40V172.60 M476,178.60V172.60 M477,178.60V173.80 M478,177.40V172.60 M479,177.40V173.80 M480,177.40V172.60 M481,178.60V173.80 M482,177.40V172.60 M483,177.40V173.80 M484,178.60V173.80 M485,177.40V171.40 M486,178.60V172.60 M487,178.60V173.80 M488,177.40V173.80 M489,178.60V172.60 M490,178.60V172.60 M491,178.60V172.60 M492,178.60V172.60 M493,178.60V173.80 M494,178.60V172.60 M495,178.60V172.60 M496,177.40V173.80 M497,177.40V173.80 M498,178.60V172.60 M499,178.60V172.60 M500,178.60V173.80 M501,178.60V173.80 M502,178.60V172.60 M503,177.40V172.60 M504,178.60V172.60 M505,178.60V173.80 M506,178.60V172.60 M507,177.40V173.80 M508,178.60V172.60 M509,178.60V172.60 M510,178.60V173.80 M511,178.60V172.60 M512,177.40V173.80 M513,178.60V173.80 M514,178.60V173.80 M515,178.60V173.80 M516,177.40V172.60 M517,177.40V172.60 M518,177.40V172.60 M519,177.40V172.60 M520,178.60V172.60 M521,177.40V172.60 M522,179.80V172.60 M523,178.60V172.60 M524,177.40V173.80 M525,178.60V172.60 M526,178.60V173.80 M527,177.40V173.80 M528,177.40V173.80 M529,178.60V173.80 M530,177.40V173.80 M531,178.60V171.40 M532,178.60V173.80 M533,178.60V172.60 M534,178.60V172.60 M535,177.40V173.80 M536,178.60V172.60 M537,177.40V172.60 M538,179.80V172.60 M539,177.40V173.80 M540,178.60V173.80 M541,178.60V172.60 M542,178.60V172.60 M543,177.40V172.60 M544,178.60V172.60 M545,177.40V173.80 M546,177.40V173.80 M547,178.60V172.60 M548,177.40V172.60 M549,178.60V173.80 M550,178.60V173.80 M551,177.40V173.80 M552,179.80V173.80 M553,178.60V172.60 M554,178.60V172.60 M555,178.60V172.60 M556,178.60V172.60 M557,178.60V173.80 M558,178.60V173.80 M559,178.60V173.80 M560,177.40V173.80 M561,177.40V173.80 M562,178.60V172.60 M563,178.60V172.60 M564,178.60V173.80 M565,177.40V172.60 M566,177.40V173.80 M567,178.60V172.60 M568,177.40V173.80 M569,178.60V173.80 M570,177.40V173.80 M571,178.60V172.60 M572,178.60V172.60 M573,177.40V171.40 M574,177.40V172.60 M575,177.40V173.80 M576,178.60V172.60 M577,177.40V172.60 M578,178.60V173.80 M579,179.80V173.80 M580,178.60V74.20 M581,177.40V74.20 M582,177.40V76.60 M583,178.60V75.40 M584,178.60V75.40 M585,177.40V75.40 M586,178.60V74.20 M587,177.40V75.40 M588,177.40V172.60 M589,177.40V172.60 M590,178.60V172.60 M591,178.60V173.80 M592,177.40V172.60 M593,178.60V172.60 M594,178.60V173.80 M595,178.60V172.60 M596,178.60V173.80 M597,178.60V173.80 M598,177.40V172.60 M599,177.40V172.60 M600,178.60V172.60 M601,178.60V173.80 M602,177.40V173.80 M603,177.40V172.60 M604,177.40V172.60 M605,177.40V173.80 M606,178.60V172.60 M607,178.60V172.60 M608,178.60V173.80 M609,178.60V173.80 M610,178.60V172.60 M611,178.60V172.60 M612,178.60V172.60 M613,178.60V172.60 M614,178.60V172.60 M615,178.60V172.60 M616,178.60V173.80 M617,178.60V172.60 M618,177.40V173.80 M619,179.80V172.60 M620,178.60V173.80 M621,177.40V172.60 M622,177.40V173.80 M623,178.60V172.60 M624,177.40V172.60 M625,178.60V173.80 M626,178.60V172.60 M627,178.60V173.80 M628,177.40V172.60 M629,178.60V172.60 M630,177.40V172.60 M631,177.40V173.80 M632,177.40V172.60 M633,178.60V173.80 M634,178.60V173.80 M635,177.40V173.80 M636,178.60V172.60 M637,177.40V172.60 M638,178.60V172.60 M639,177.40V172.60 M640,177.40V173.80 M641,178.60V173.80 M642,177.40V173.80 M643,178.60V173.80 M644,178.60V172.60 M645,179.80V172.60 M646,177.40V172.60 M647,177.40V173.80 M648,178.60V173.80 M649,177.40V172.60 M650,177.40V172.60 M651,177.40V173.80 M652,177.40V173.80 M653,177.40V173.80 M654,178.60V173.80 M655,178.60V172.60 M656,178.60V173.80 M657,177.40V172.60 M658,178.60V172.60 M659,177.40V172.60 M660,178.60V173.80 M661,178.60V172.60 M662,177.40V172.60 M663,178.60V172.60 M664,178.60V172.60 M665,177.40V172.60 M666,179.80V172.60 M667,178.60V172.60 M668,178.60V173.80 M669,178.60V172.60 M670,178.60V172.60 M671,179.80V173.80 M672,179.80V173.80 M673,178.60V172.60 M674,178.60V173.80 M675,178.60V172.60 M676,178.60V173.80 M677,177.40V172.60 M678,178.60V172.60 M679,178.60V172.60 M680,177.40V173.80 M681,178.60V173.80 M682,178.60V173.80 M683,178.60V172.60 M684,178.60V172.60 M685,179.80V172.60 M686,178.60V172.60 M687,177.40V173.80 M688,178.60V172.60 M689,179.80V173.80 M690,177.40V172.60 M691,177.40V173.80 M692,179.80V172.60 M693,178.60V172.60 M694,178.60V172.60 M695,178.60V173.80 M696,177.40V173.80 M697,178.60V172.60 M698,177.40V172.60 M699,177.40V172.60 M700,178.60V172.60 M701,177.40V172.60 M702,178.60V172.60 M703,178.60V173.80 M704,178.60V173.80 M705,177.40V173.80 M706,178.60V173.80 M707,178.60V172.60 M708,178.60V171.40 M709,178.60V172.60 M710,178.60V173.80 M711,178.60V173.80 M712,178.60V172.60 M713,178.60V171.40 M714,177.40V172.60 M715,177.40V172.60 M716,178.60V172.60 M717,178.60V172.60 M718,177.40V173.80 M719,178.60V171.40 M720,178.60V172.60 M721,178.60V172.60 M722,177.40V172.60 M723,178.60V173.80 M724,177.40V172.60 M725,178.60V173.80 M726,177.40V173.80 M727,178.60V173.80 M728,177.40V172.60 M729,178.60V171.40 M730,177.40V173.80 M731,177.40V173.80 M732,178.60V172.60 M733,178.60V172.60 M734,178.60V173.80 M735,178.60V173.80 M736,178.60V172.60 M737,177.40V172.60 M738,178.60V172.60 M739,177.40V172.60 M740,177.40V172.60 M741,177.40V173.80 M742,178.60V172.60 M743,178.60V173.80 M744,177.40V172.60 M745,177.40V172.60 M746,178.60V172.60 M747,178.60V172.60 M748,178.60V172.60 M749,178.60V172.60 M750,178.60V172.60 M751,178.60V172.60 M752,178.60V173.80 M753,177.40V172.60 M754,177.40V172.60 M755,177.40V173.80 M756,178.60V173.80 M757,178.60V173.80 M758,177.40V172.60 M759,178.60V172.60 M760,178.60V172.60 M761,178.60V172.60 M762,177.40V172.60 M763,177.40V172.60 M764,178.60V172.60 M765,178.60V172.60 M766,177.40V172.60 M767,177.40V173.80 M768,178.60V172.60 M769,177.40V172.60 M770,178.60V171.40 M771,177.40V172.60 M772,178.60V172.60 M773,177.40V172.60 M774,178.60V172.60 M775,178.60V171.40 M776,177.40V172.60 M777,177.40V172.60 M778,177.40V173.80 M779,178.60V173.80 M780,177.40V172.60 M781,178.60V173.80 M782,178.60V172.60 M783,178.60V173.80 M784,178.60V173.80 M785,178.60V173.80 M786,177.40V172.60 M787,177.40V173.80 M788,179.80V173.80 M789,177.40V173.80 M790,178.60V172.60 M791,177.40V173.80 M792,177.40V173.80 M793,177.40V172.60 M794,177.40V173.80 M795,177.40V172.60 M796,178.60V171.40 M797,177.40V172.60 M798,178.60V172.60 M799,178.60V173.80 M800,178.60V173.80 M801,178.60V171.40 M802,179.80V173.80 M803,178.60V172.60 M804,177.40V172.60 M805,177.40V172.60 M806,177.40V172.60 M807,177.40V173.80 M808,177.40V173.80 M809,177.40V172.60 M810,177.40V172.60 M811,177.40V172.60 M812,177.40V171.40 M813,177.40V172.60 M814,177.40V173.80 M815,178.60V171.40 M816,178.60V173.80 M817,178.60V173.80 M818,179.80V171.40 M819,177.40V172.60 M820,177.40V172.60 M821,178.60V172.60 M822,178.60V173.80 M823,178.60V173.80 M824,178.60V173.80 M825,177.40V172.60 M826,177.40V173.80 M827,178.60V173.80 M828,178.60V173.80 M829,177.40V172.60 M830,178.60V171.40 M831,177.40V172.60 M832,177.40V172.60 M833,178.60V172.60 M834,178.60V172.60 M835,178.60V172.60 M836,178.60V172.60 M837,178.60V173.80 M838,178.60V172.60 M839,177.40V172.60 M840,177.40V172.60 M841,177.40V172.60 M842,178.60V172.60 M843,178.60V172.60 M844,178.60V172.60 M845,178.60V172.60 M846,177.40V172.60 M847,178.60V172.60 M848,177.40V173.80 M849,178.60V172.60 M850,178.60V172.60 M851,178.60V172.60 M852,178.60V172.60 M853,178.60V172.60 M854,177.40V173.80 M855,179.80V173.80 M856,177.40V172.60 M857,178.60V173.80 M858,177.40V173.80 M859,178.60V173.80 M860,177.40V173.80 M861,178.60V173.80 M862,178.60V172.60 M863,177.40V172.60 M864,178.60V173.80 M865,177.40V172.60 M866,178.60V172.60 M867,177.40V172.60 M868,177.40V173.80 M869,177.40V173.80 M870,177.40V173.80 M871,177.40V172.60 M872,178.60V173.80 M873,178.60V172.60 M874,178.60V172.60 M875,177.40V172.60 M876,178.60V172.60 M877,177.40V173.80 M878,177.40V172.60 M879,178.60V172.60 M880,178.60V173.80 M881,177.40V172.60 M882,179.80V172.60 M883,177.40V173.80 M884,178.60V172.60 M885,178.60V173.80 M886,178.60V172.60 M887,177.40V171.40 M888,178.60V172.60 M889,178.60V172.60 M890,178.60V171.40 M891,177.40V173.80 M892,178.60V173.80 M893,177.40V173.80 M894,177.40V173.80 M895,178.60V173.80 M896,178.60V171.40 M897,178.60V172.60 M898,178.60V172.60 M899,178.60V172.60 M900,178.60V172.60 M901,178.60V173.80 M902,177.40V172.60 M903,178.60V173.80 M904,178.60V172.60 M905,178.60V173.80 M906,178.60V172.60 M907,177.40V173.80 M908,177.40V172.60 M909,177.40V171.40 M910,178.60V172.60 M911,178.60V172.60 M912,178.60V173.80 M913,177.40V173.80 M914,177.40V172.60 M915,177.40V173.80 M916,178.60V173.80 M917,177.40V172.60 M918,178.60V173.80 M919,178.60V173.80 M920,177.40V172.60 M921,179.80V172.60 M922,177.40V173.80 M923,177.40V173.80 M924,177.40V173.80 M925,177.40V172.60 M926,178.60V173.80 M927,178.60V173.80 M928,178.60V173.80 M929,177.40V172.60 M930,178.60V171.40 M931,178.60V173.80 M932,178.60V173.80 M933,177.40V172.60 M934,177.40V173.80 M935,177.40V172.60 M936,177.40V172.60 M937,178.60V173.80 M938,178.60V173.80 M939,178.60V172.60 M940,177.40V172.60 M941,177.40V172.60 M942,178.60V173.80 M943,178.60V171.40 M944,179.80V172.60 M945,177.40V172.60 M946,177.40V173.80 M947,177.40V172.60 M948,177.40V172.60 M949,178.60V173.80 M950,177.40V173.80 M951,178.60V173.80 M952,178.60V172.60 M953,177.40V172.60 M954,178.60V171.40 M955,177.40V172.60 M956,177.40V173.80 M957,177.40V171.40 M958,177.40V172.60 M959,177.40V172.60 M960,179.80V172.60 M961,178.60V172.60 M962,179.80V172.60 M963,177.40V173.80 M964,178.60V172.60 M965,177.40V173.80 M966,177.40V173.80 M967,179.80V171.40 M968,178.60V172.60 M969,178.60V173.80 M970,177.40V173.80 M971,178.60V172.60 M972,177.40V173.80 M973,178.60V172.60 M974,177.40V173.80 M975,177.40V173.80 M976,178.60V173.80 M977,178.60V173.80 M978,177.40V173.80 M979,178.60V173.80 M980,178.60V172.60 M981,178.60V172.60 M982,177.40V173.80 M983,178.60V172.60 M984,177.40V173.80 M985,178.60V173.80 M986,178.60V172.60 M987,178.60V77.80 M988,177.40V75.40 M989,178.60V75.40 M990,178.60V76.60 M991,178.60V76.60 M992,177.40V75.40 M993,178.60V75.40 M994,178.60V76.60 M995,178.60V74.20 M996,177.40V172.60 M997,178.60V173.80 M998,178.60V172.60 M999,177.40V173.80 M1000,178.60V173.80 M1001,178.60V171.40 M1002,177.40V172.60 M1003,179.80V172.60 M1004,177.40V172.60 M1005,177.40V172.60 M1006,178.60V172.60 M1007,178.60V172.60 M1008,178.60V172.60 M1009,177.40V172.60 M1010,178.60V171.40 M1011,178.60V172.60 M1012,177.40V173.80 M1013,178.60V173.80 M1014,178.60V173.80 M1015,178.60V173.80 M1016,178.60V172.60 M1017,178.60V173.80 M1018,177.40V172.60 M1019,177.40V172.60 M1020,177.40V173.80 M1021,178.60V173.80 M1022,178.60V172.60 M1023,178.60V171.40 M1024,178.60V172.60 M1025,177.40V173.80 M1026,177.40V172.60 M1027,177.40V172.60 M1028,178.60V173.80 M1029,177.40V172.60 M1030,178.60V172.60 M1031,179.80V172.60 M1032,178.60V172.60 M1033,178.60V173.80 M1034,177.40V172.60 M1035,178.60V173.80 M1036,177.40V172.60 M1037,177.40V172.60 M1038,178.60V172.60 M1039,178.60V171.40 M1040,177.40V173.80 M1041,179.80V172.60 M1042,178.60V172.60 M1043,177.40V172.60 M1044,178.60V172.60 M1045,178.60V172.60 M1046,178.60V171.40 M1047,178.60V172.60 M1048,178.60V173.80 M1049,179.80V172.60 M1050,178.60V172.60 M1051,177.40V172.60 M1052,177.40V172.60 M1053,178.60V172.60 M1054,177.40V172.60 M1055,178.60V173.80 M1056,178.60V172.60 M1057,177.40V173.80 M1058,178.60V172.60 M1059,178.60V172.60" stroke="#2563eb" fill="none"/>
<path d="M580.0,55V190" stroke="#777" stroke-dasharray="3 3"/>
<text x="10" y="270" font-family="sans-serif" font-size="12">CH2 CSn_HC165</text>
<path d="M100,330H1060" stroke="#ddd"/>
<path d="M100,280.5H1060" stroke="#ddd"/>
<path d="M100,231.0H1060" stroke="#ddd"/>
<path d="M100,229.20V224.40 M101,230.40V223.20 M102,230.40V223.20 M103,229.20V224.40 M104,229.20V224.40 M105,229.20V224.40 M106,230.40V224.40 M107,230.40V223.20 M108,229.20V223.20 M109,230.40V224.40 M110,230.40V223.20 M111,230.40V224.40 M112,230.40V224.40 M113,229.20V223.20 M114,230.40V224.40 M115,230.40V223.20 M116,231.60V223.20 M117,231.60V223.20 M118,231.60V223.20 M119,229.20V224.40 M120,229.20V223.20 M121,230.40V224.40 M122,230.40V223.20 M123,229.20V223.20 M124,230.40V223.20 M125,231.60V224.40 M126,230.40V224.40 M127,230.40V223.20 M128,230.40V224.40 M129,229.20V224.40 M130,230.40V223.20 M131,229.20V224.40 M132,229.20V223.20 M133,229.20V224.40 M134,230.40V223.20 M135,229.20V223.20 M136,229.20V223.20 M137,229.20V223.20 M138,230.40V224.40 M139,230.40V223.20 M140,230.40V223.20 M141,230.40V223.20 M142,229.20V224.40 M143,229.20V224.40 M144,229.20V224.40 M145,231.60V223.20 M146,229.20V224.40 M147,230.40V224.40 M148,230.40V224.40 M149,230.40V223.20 M150,230.40V224.40 M151,229.20V224.40 M152,230.40V224.40 M153,230.40V223.20 M154,229.20V223.20 M155,229.20V222.00 M156,230.40V224.40 M157,230.40V223.20 M158,230.40V223.20 M159,229.20V224.40 M160,231.60V223.20 M161,230.40V223.20 M162,230.40V223.20 M163,230.40V224.40 M164,229.20V223.20 M165,230.40V224.40 M166,230.40V223.20 M167,230.40V224.40 M168,229.20V224.40 M169,229.20V224.40 M170,230.40V223.20 M171,229.20V223.20 M172,229.20V224.40 M173,229.20V224.40 M174,230.40V222.00 M175,229.20V224.40 M176,229.20V224.40 M177,230.40V224.40 M178,230.40V223.20 M179,230.40V223.20 M180,230.40V223.20 M181,229.20V224.40 M182,230.40V223.20 M183,230.40V223.20 M184,230.40V224.40 M185,229.20V223.20 M186,230.40V224.40 M187,230.40V223.20 M188,230.40V224.40 M189,230.40V224.40 M190,230.40V224.40 M191,230.40V224.40 M192,230.40V224.40 M193,229.20V224.40 M194,230.40V223.20 M195,229.20V223.20 M196,230.40V223.20 M197,230.40V223.20 M198,229.20V224.40 M199,229.20V224.40 M200,230.40V223.20 M201,230.40V224.40 M202,230.40V224.40 M203,229.20V224.40 M204,230.40V224.40 M205,230.40V222.00 M206,230.40V224.40 M207,230.40V223.20 M208,230.40V224.40 M209,230.40V224.40 M210,230.40V224.40 M211,230.40V223.20 M212,230.40V224.40 M213,229.20V224.40 M214,230.40V223.20 M215,229.20V224.40 M216,230.40V224.40 M217,230.40V223.20 M218,230.40V224.40 M219,230.40V224.40 M220,230.40V223.20 M221,229.20V223.20 M222,230.40V223.20 M223,229.20V224.40 M224,230.40V223.20 M225,230.40V223.20 M226,230.40V223.20 M227,231.60V224.40 M228,229.20V223.20 M229,230.40V224.40 M230,230.40V223.20 M231,231.60V223.20 M232,229.20V223.20 M233,229.20V223.20 M234,230.40V224.40 M235,229.20V223.20 M236,229.20V224.40 M237,229.20V224.40 M238,230.40V224.40 M239,230.40V224.40 M240,230.40V223.20 M241,229.20V224.40 M242,230.40V224.40 M243,230.40V223.20 M244,229.20V224.40 M245,229.20V223.20 M246,229.20V224.40 M247,230.40V224.40 M248,230.40V223.20 M249,229.20V224.40 M250,230.40V223.20 M251,230.40V224.40 M252,230.40V223.20 M253,230.40V224.40 M254,230.40V224.40 M255,230.40V223.20 M256,230.40V223.20 M257,230.40V223.20 M258,231.60V223.20 M259,230.40V224.40 M260,230.40V223.20 M261,229.20V223.20 M262,230.40V223.20 M263,230.40V223.20 M264,229.20V224.40 M265,230.40V224.40 M266,229.20V224.40 M267,230.40V222.00 M268,230.40V224.40 M269,229.20V223.20 M270,229.20V223.20 M271,230.40V224.40 M272,229.20V224.40 M273,229.20V223.20 M274,229.20V223.20 M275,230.40V223.20 M276,230.40V224.40 M277,231.60V225.60 M278,229.20V224.40 M279,230.40V223.20 M280,229.20V224.40 M281,230.40V224.40 M282,230.40V224.40 M283,231.60V223.20 M284,230.40V224.40 M285,230.40V224.40 M286,229.20V224.40 M287,230.40V223.20 M288,230.40V223.20 M289,230.40V224.40 M290,230.40V224.40 M291,229.20V223.20 M292,230.40V223.20 M293,229.20V223.20 M294,230.40V224.40 M295,230.40V224.40 M296,230.40V223.20 M297,230.40V223.20 M298,230.40V223.20 M299,230.40V224.40 M300,229.20V223.20 M301,229.20V224.40 M302,230.40V223.20 M303,230.40V224.40 M304,231.60V223.20 M305,229.20V222.00 M306,230.40V223.20 M307,230.40V224.40 M308,230.40V224.40 M309,230.40V223.20 M310,230.40V224.40 M311,230.40V224.40 M312,230.40V224.40 M313,229.20V224.40 M314,230.40V223.20 M315,230.40V224.40 M316,231.60V224.40 M317,229.20V224.40 M318,231.60V223.20 M319,230.40V224.40 M320,230.40V223.20 M321,229.20V223.20 M322,229.20V223.20 M323,230.40V224.40 M324,229.20V224.40 M325,230.40V224.40 M326,230.40V224.40 M327,230.40V223.20 M328,230.40V223.20 M329,230.40V224.40 M330,230.40V224.40 M331,230.40V223.20 M332,230.40V224.40 M333,230.40V223.20 M334,230.40V224.40 M335,230.40V223.20 M336,230.40V223.20 M337,229.20V224.40 M338,230.40V224.40 M339,229.20V223.20 M340,230.40V224.40 M341,229.20V224.40 M342,229.20V224.40 M343,229.20V223.20 M344,229.20V223.20 M345,229.20V224.40 M346,230.40V224.40 M347,230.40V223.20 M348,230.40V223.20 M349,230.40V224.40 M350,230.40V223.20 M351,230.40V223.20 M352,229.20V224.40 M353,230.40V224.40 M354,230.40V224.40 M355,229.20V223.20 M356,229.20V224.40 M357,230.40V224.40 M358,230.40V223.20 M359,230.40V224.40 M360,230.40V224.40 M361,229.20V224.40 M362,229.20V223.20 M363,230.40V224.40 M364,229.20V224.40 M365,230.40V223.20 M366,230.40V224.40 M367,229.20V223.20 M368,230.40V223.20 M369,230.40V223.20 M370,229.20V224.40 M371,229.20V224.40 M372,230.40V223.20 M373,230.40V224.40 M374,229.20V224.40 M375,229.20V224.40 M376,229.20V223.20 M377,230.40V223.20 M378,231.60V223.20 M379,229.20V223.20 M380,231.60V224.40 M381,229.20V223.20 M382,230.40V223.20 M383,229.20V223.20 M384,230.40V224.40 M385,230.40V223.20 M386,230.40V224.40 M387,229.20V223.20 M388,229.20V223.20 M389,230.40V222.00 M390,229.20V223.20 M391,230.40V224.40 M392,230.40V224.40 M393,230.40V223.20 M394,230.40V224.40 M395,230.40V223.20 M396,229.20V223.20 M397,229.20V223.20 M398,230.40V224.40 M399,230.40V223.20 M400,230.40V223.20 M401,231.60V224.40 M402,230.40V224.40 M403,230.40V223.20 M404,230.40V223.20 M405,231.60V224.40 M406,230.40V223.20 M407,229.20V223.20 M408,229.20V223.20 M409,230.40V224.40 M410,229.20V224.40 M411,229.20V223.20 M412,230.40V224.40 M413,230.40V224.40 M414,230.40V224.40 M415,229.20V224.40 M416,229.20V223.20 M417,229.20V223.20 M418,229.20V223.20 M419,229.20V224.40 M420,230.40V223.20 M421,230.40V224.40 M422,229.20V224.40 M423,230.40V224.40 M424,230.40V224.40 M425,229.20V224.40 M426,229.20V224.40 M427,230.40V224.40 M428,229.20V223.20 M429,231.60V223.20 M430,230.40V223.20 M431,230.40V223.20 M432,230.40V224.40 M433,230.40V224.40 M434,230.40V224.40 M435,229.20V224.40 M436,230.40V224.40 M437,230.40V223.20 M438,229.20V223.20 M439,231.60V224.40 M440,229.20V223.20 M441,230.40V224.40 M442,230.40V223.20 M443,229.20V223.20 M444,230.40V223.20 M445,230.40V223.20 M446,230.40V224.40 M447,229.20V223.20 M448,229.20V224.40 M449,230.40V224.40 M450,230.40V224.40 M451,229.20V224.40 M452,229.20V223.20 M453,230.40V224.40 M454,230.40V224.40 M455,229.20V224.40 M456,229.20V223.20 M457,230.40V224.40 M458,230.40V224.40 M459,229.20V224.40 M460,230.40V224.40 M461,230.40V223.20 M462,229.20V224.40 M463,230.40V223.20 M464,229.20V223.20 M465,231.60V224.40 M466,230.40V223.20 M467,230.40V224.40 M468,231.60V223.20 M469,229.20V224.40 M470,231.60V224.40 M471,230.40V223.20 M472,229.20V224.40 M473,230.40V224.40 M474,229.20V224.40 M475,229.20V223.20 M476,229.20V224.40 M477,229.20V223.20 M478,230.40V224.40 M479,230.40V223.20 M480,230.40V223.20 M481,231.60V223.20 M482,230.40V224.40 M483,230.40V222.00 M484,230.40V224.40 M485,230.40V223.20 M486,229.20V224.40 M487,230.40V222.00 M488,230.40V222.00 M489,230.40V224.40 M490,229.20V224.40 M491,230.40V224.40 M492,229.20V224.40 M493,230.40V223.20 M494,230.40V223.20 M495,230.40V224.40 M496,230.40V224.40 M497,229.20V224.40 M498,229.20V223.20 M499,230.40V223.20 M500,229.20V224.40 M501,230.40V223.20 M502,230.40V223.20 M503,229.20V223.20 M504,230.40V224.40 M505,229.20V224.40 M506,230.40V223.20 M507,229.20V223.20 M508,230.40V224.40 M509,230.40V223.20 M510,230.40V223.20 M511,230.40V224.40 M512,229.20V224.40 M513,230.40V224.40 M514,229.20V223.20 M515,230.40V224.40 M516,230.40V224.40 M517,229.20V223.20 M518,229.20V224.40 M519,231.60V224.40 M520,230.40V223.20 M521,230.40V223.20 M522,229.20V224.40 M523,230.40V224.40 M524,230.40V224.40 M525,229.20V224.40 M526,229.20V223.20 M527,230.40V224.40 M528,230.40V223.20 M529,230.40V224.40 M530,230.40V223.20 M531,230.40V223.20 M532,229.20V223.20 M533,230.40V223.20 M534,230.40V223.20 M535,230.40V223.20 M536,229.20V223.20 M537,230.40V224.40 M538,231.60V223.20 M539,230.40V224.40 M540,229.20V223.20 M541,231.60V224.40 M542,230.40V224.40 M543,229.20V224.40 M544,229.20V223.20 M545,230.40V224.40 M546,230.40V223.20 M547,230.40V224.40 M548,229.20V223.20 M549,230.40V223.20 M550,230.40V223.20 M551,229.20V224.40 M552,230.40V224.40 M553,229.20V223.20 M554,230.40V222.00 M555,229.20V224.40 M556,229.20V224.40 M557,229.20V223.20 M558,230.40V224.40 M559,229.20V223.20 M560,230.40V224.40 M561,229.20V224.40 M562,230.40V223.20 M563,230.40V224.40 M564,230.40V223.20 M565,231.60V224.40 M566,231.60V223.20 M567,229.20V224.40 M568,229.20V223.20 M569,230.40V224.40 M570,230.40V223.20 M571,229.20V224.40 M572,230.40V223.20 M573,230.40V223.20 M574,229.20V223.20 M575,230.40V223.20 M576,230.40V224.40 M577,230.40V224.40 M578,229.20V224.40 M579,231.60V224.40 M580,230.40V223.20 M581,231.60V224.40 M582,231.60V224.40 M583,229.20V224.40 M584,230.40V223.20 M585,229.20V224.40 M586,229.20V224.40 M587,229.20V223.20 M588,229.20V223.20 M589,230.40V224.40 M590,230.40V222.00 M591,230.40V223.20 M592,230.40V224.40 M593,230.40V223.20 M594,230.40V223.20 M595,229.20V224.40 M596,231.60V223.20 M597,230.40V223.20 M598,230.40V223.20 M599,231.60V224.40 M600,229.20V223.20 M601,230.40V224.40 M602,230.40V223.20 M603,230.40V223.20 M604,229.20V223.20 M605,230.40V224.40 M606,231.60V224.40 M607,231.60V223.20 M608,230.40V223.20 M609,230.40V223.20 M610,229.20V223.20 M611,230.40V224.40 M612,230.40V224.40 M613,229.20V224.40 M614,229.20V223.20 M615,229.20V224.40 M616,231.60V224.40 M617,229.20V224.40 M618,230.40V224.40 M619,230.40V224.40 M620,230.40V224.40 M621,229.20V224.40 M622,229.20V223.20 M623,230.40V223.20 M624,230.40V223.20 M625,230.40V224.40 M626,229.20V224.40 M627,230.40V223.20 M628,229.20V224.40 M629,230.40V223.20 M630,229.20V224.40 M631,229.20V224.40 M632,230.40V223.20 M633,229.20V224.40 M634,229.20V223.20 M635,230.40V224.40 M636,229.20V223.20 M637,230.40V223.20 M638,230.40V224.40 M639,230.40V224.40 M640,230.40V223.20 M641,229.20V223.20 M642,229.20V224.40 M643,230.40V223.20 M644,229.20V223.20 M645,230.40V223.20 M646,230.40V223.20 M647,229.20V224.40 M648,229.20V224.40 M649,229.20V224.40 M650,229.20V222.00 M651,230.40V222.00 M652,229.20V223.20 M653,231.60V223.20 M654,230.40V224.40 M655,230.40V223.20 M656,229.20V223.20 M657,229.20V223.20 M658,230.40V224.40 M659,230.40V223.20 M660,229.20V223.20 M661,230.40V223.20 M662,229.20V224.40 M663,230.40V224.40 M664,230.40V224.40 M665,229.20V222.00 M666,231.60V223.20 M667,230.40V224.40 M668,231.60V223.20 M669,230.40V224.40 M670,230.40V223.20 M671,229.20V223.20 M672,230.40V225.60 M673,231.60V223.20 M674,230.40V223.20 M675,230.40V223.20 M676,229.20V224.40 M677,230.40V224.40 M678,230.40V223.20 M679,230.40V224.40 M680,230.40V224.40 M681,230.40V224.40 M682,230.40V224.40 M683,231.60V224.40 M684,230.40V223.20 M685,230.40V223.20 M686,230.40V223.20 M687,231.60V224.40 M688,230.40V223.20 M689,229.20V224.40 M690,230.40V223.20 M691,231.60V223.20 M692,230.40V224.40 M693,229.20V224.40 M694,230.40V224.40 M695,230.40V223.20 M696,229.20V224.40 M697,230.40V223.20 M698,229.20V223.20 M699,230.40V224.40 M700,229.20V224.40 M701,230.40V223.20 M702,229.20V224.40 M703,230.40V223.20 M704,230.40V224.40 M705,229.20V223.20 M706,230.40V224.40 M707,230.40V223.20 M708,229.20V223.20 M709,229.20V224.40 M710,230.40V223.20 M711,229.20V223.20 M712,231.60V223.20 M713,230.40V223.20 M714,229.20V223.20 M715,230.40V224.40 M716,230.40V224.40 M717,229.20V224.40 M718,229.20V224.40 M719,230.40V224.40 M720,229.20V223.20 M721,230.40V223.20 M722,230.40V223.20 M723,230.40V224.40 M724,229.20V223.20 M725,229.20V224.40 M726,230.40V224.40 M727,229.20V223.20 M728,231.60V224.40 M729,230.40V224.40 M730,230.40V224.40 M731,229.20V223.20 M732,229.20V223.20 M733,230.40V223.20 M734,231.60V223.20 M735,229.20V223.20 M736,230.40V223.20 M737,230.40V222.00 M738,230.40V223.20 M739,230.40V223.20 M740,230.40V223.20 M741,230.40V223.20 M742,229.20V223.20 M743,230.40V224.40 M744,229.20V225.60 M745,230.40V223.20 M746,229.20V223.20 M747,230.40V223.20 M748,229.20V223.20 M749,229.20V223.20 M750,230.40V223.20 M751,229.20V223.20 M752,231.60V224.40 M753,231.60V223.20 M754,229.20V223.20 M755,230.40V224.40 M756,230.40V224.40 M757,229.20V224.40 M758,230.40V223.20 M759,229.20V223.20 M760,229.20V223.20 M761,231.60V223.20 M762,230.40V223.20 M763,230.40V224.40 M764,230.40V224.40 M765,230.40V223.20 M766,229.20V224.40 M767,230.40V224.40 M768,230.40V223.20 M769,230.40V223.20 M770,230.40V223.20 M771,229.20V223.20 M772,230.40V223.20 M773,230.40V224.40 M774,230.40V224.40 M775,230.40V223.20 M776,230.40V224.40 M777,230.40V224.40 M778,230.40V223.20 M779,229.20V223.20 M780,229.20V224.40 M781,231.60V223.20 M782,230.40V224.40 M783,230.40V223.20 M784,230.40V223.20 M785,231.60V223.20 M786,230.40V224.40 M787,230.40V223.20 M788,231.60V224.40 M789,230.40V224.40 M790,230.40V224.40 M791,229.20V223.20 M792,229.20V224.40 M793,229.20V223.20 M794,229.20V224.40 M795,230.40V223.20 M796,229.20V222.00 M797,230.40V224.40 M798,230.40V223.20 M799,229.20V224.40 M800,230.40V224.40 M801,230.40V223.20 M802,229.20V223.20 M803,229.20V224.40 M804,230.40V223.20 M805,229.20V223.20 M806,230.40V224.40 M807,230.40V223.20 M808,229.20V223.20 M809,229.20V223.20 M810,230.40V224.40 M811,229.20V222.00 M812,229.20V224.40 M813,229.20V223.20 M814,229.20V224.40 M815,229.20V223.20 M816,229.20V223.20 M817,229.20V223.20 M818,230.40V223.20 M819,229.20V224.40 M820,229.20V224.40 M821,230.40V223.20 M822,229.20V223.20 M823,229.20V223.20 M824,230.40V223.20 M825,229.20V224.40 M826,230.40V224.40 M827,229.20V223.20 M828,229.20V224.40 M829,229.20V224.40 M830,230.40V224.40 M831,230.40V224.40 M832,229.20V224.40 M833,230.40V224.40 M834,230.40V223.20 M835,230.40V223.20 M836,229.20V223.20 M837,230.40V224.40 M838,230.40V224.40 M839,229.20V224.40 M840,229.20V223.20 M841,229.20V224.40 M842,230.40V222.00 M843,229.20V224.40 M844,230.40V224.40 M845,229.20V223.20 M846,230.40V223.20 M847,230.40V223.20 M848,230.40V223.20 M849,230.40V223.20 M850,229.20V223.20 M851,229.20V224.40 M852,230.40V222.00 M853,229.20V223.20 M854,230.40V223.20 M855,229.20V223.20 M856,230.40V223.20 M857,230.40V223.20 M858,230.40V223.20 M859,230.40V223.20 M860,230.40V223.20 M861,230.40V224.40 M862,230.40V223.20 M863,230.40V224.40 M864,229.20V224.40 M865,229.20V223.20 M866,232.80V224.40 M867,230.40V223.20 M868,229.20V223.20 M869,229.20V224.40 M870,230.40V224.40 M871,229.20V224.40 M872,230.40V224.40 M873,230.40V224.40 M874,230.40V224.40 M875,229.20V222.00 M876,230.40V224.40 M877,229.20V224.40 M878,230.40V225.60 M879,231.60V224.40 M880,230.40V224.40 M881,231.60V224.40 M882,230.40V224.40 M883,230.40V223.20 M884,230.40V223.20 M885,229.20V223.20 M886,230.40V223.20 M887,230.40V224.40 M888,230.40V223.20 M889,229.20V223.20 M890,230.40V223.20 M891,229.20V223.20 M892,230.40V224.40 M893,230.40V224.40 M894,230.40V223.20 M895,230.40V223.20 M896,230.40V223.20 M897,229.20V224.40 M898,229.20V223.20 M899,229.20V223.20 M900,229.20V223.20 M901,230.40V224.40 M902,230.40V223.20 M903,230.40V223.20 M904,230.40V224.40 M905,229.20V223.20 M906,230.40V224.40 M907,230.40V224.40 M908,229.20V224.40 M909,230.40V223.20 M910,229.20V222.00 M911,229.20V223.20 M912,230.40V223.20 M913,229.20V223.20 M914,229.20V224.40 M915,229.20V223.20 M916,229.20V224.40 M917,230.40V224.40 M918,231.60V224.40 M919,229.20V223.20 M920,231.60V224.40 M921,230.40V224.40 M922,230.40V223.20 M923,229.20V223.20 M924,229.20V223.20 M925,230.40V224.40 M926,230.40V223.20 M927,230.40V224.40 M928,230.40V223.20 M929,229.20V223.20 M930,230.40V224.40 M931,230.40V223.20 M932,230.40V224.40 M933,230.40V223.20 M934,229.20V224.40 M935,230.40V224.40 M936,230.40V224.40 M937,229.20V223.20 M938,230.40V224.40 M939,230.40V224.40 M940,229.20V224.40 M941,229.20V223.20 M942,231.60V224.40 M943,230.40V223.20 M944,229.20V223.20 M945,230.40V224.40 M946,230.40V223.20 M947,229.20V224.40 M948,230.40V223.20 M949,229.20V224.40 M950,229.20V223.20 M951,230.40V223.20 M952,229.20V224.40 M953,229.20V223.20 M954,230.40V223.20 M955,230.40V223.20 M956,230.40V223.20 M957,229.20V224.40 M958,229.20V223.20 M959,230.40V223.20 M960,229.20V223.20 M961,230.40V223.20 M962,229.20V223.20 M963,230.40V223.20 M964,229.20V223.20 M965,230.40V223.20 M966,230.40V224.40 M967,231.60V224.40 M968,230.40V223.20 M969,229.20V223.20 M970,229.20V223.20 M971,230.40V223.20 M972,231.60V223.20 M973,229.20V223.20 M974,230.40V224.40 M975,231.60V223.20 M976,229.20V224.40 M977,229.20V223.20 M978,230.40V224.40 M979,230.40V223.20 M980,229.20V223.20 M981,229.20V223.20 M982,230.40V224.40 M983,230.40V223.20 M984,231.60V223.20 M985,231.60V224.40 M986,230.40V224.40 M987,230.40V224.40 M988,230.40V223.20 M989,230.40V224.40 M990,229.20V224.40 M991,230.40V223.20 M992,231.60V223.20 M993,229.20V223.20 M994,229.20V223.20 M995,230.40V224.40 M996,230.40V223.20 M997,230.40V223.20 M998,230.40V223.20 M999,229.20V224.40 M1000,230.40V224.40 M1001,230.40V224.40 M1002,230.40V224.40 M1003,229.20V224.40 M1004,230.40V224.40 M1005,229.20V223.20 M1006,230.40V223.20 M1007,229.20V223.20 M1008,230.40V224.40 M1009,230.40V223.20 M1010,230.40V224.40 M1011,230.40V224.40 M1012,229.20V224.40 M1013,230.40V224.40 M1014,229.20V224.40 M1015,229.20V223.20 M1016,229.20V223.20 M1017,230.40V224.40 M1018,230.40V224.40 M1019,229.20V224.40 M1020,229.20V223.20 M1021,229.20V223.20 M1022,231.60V223.20 M1023,229.20V224.40 M1024,229.20V223.20 M1025,229.20V224.40 M1026,229.20V224.40 M1027,229.20V223.20 M1028,231.60V223.20 M1029,230.40V223.20 M1030,230.40V224.40 M1031,229.20V223.20 M1032,230.40V223.20 M1033,230.40V223.20 M1034,229.20V222.00 M1035,229.20V224.40 M1036,230.40V223.20 M1037,229.20V224.40 M1038,230.40V223.20 M1039,229.20V223.20 M1040,231.60V224.40 M1041,231.60V223.20 M1042,230.40V224.40 M1043,230.40V223.20 M1044,231.60V224.40 M1045,230.40V224.40 M1046,229.20V223.20 M1047,230.40V223.20 M1048,230.40V223.20 M1049,229.20V223.20 M1050,230.40V224.40 M1051,230.40V223.20 M1052,230.40V223.20 M1053,229.20V223.20 M1054,229.20V224.40 M1055,229.20V224.40 M1056,231.60V224.40 M1057,230.40V224.40 M1058,230.40V224.40 M1059,230.40V224.40" stroke="#dc2626" fill="none"/>
<path d="M580.0,210V345" stroke="#777" stroke-dasharray="3 3"/>
<text x="10" y="425" font-family="sans-serif" font-size="12">CH3 MOSI</text>
<path d="M100,485H1060" stroke="#ddd"/>
<path d="M100,435.5H1060" stroke="#ddd"/>
<path d="M100,386.0H1060" stroke="#ddd"/>
<path d="M100,389.00V384.20 M101,390.20V384.20 M102,390.20V384.20 M103,389.00V384.20 M104,390.20V384.20 M105,389.00V384.20 M106,390.20V384.20 M107,390.20V384.20 M108,389.00V383.00 M109,390.20V384.20 M110,389.00V384.20 M111,389.00V383.00 M112,389.00V384.20 M113,389.00V383.00 M114,389.00V384.20 M115,390.20V383.00 M116,389.00V384.20 M117,389.00V384.20 M118,389.00V384.20 M119,390.20V383.00 M120,389.00V383.00 M121,389.00V384.20 M122,390.20V384.20 M123,390.20V383.00 M124,390.20V384.20 M125,389.00V384.20 M126,389.00V384.20 M127,389.00V383.00 M128,389.00V385.40 M129,389.00V384.20 M130,390.20V384.20 M131,389.00V384.20 M132,389.00V384.20 M133,389.00V384.20 M134,390.20V383.00 M135,391.40V383.00 M136,389.00V384.20 M137,390.20V384.20 M138,389.00V384.20 M139,389.00V384.20 M140,390.20V384.20 M141,390.20V384.20 M142,390.20V383.00 M143,390.20V383.00 M144,390.20V384.20 M145,389.00V384.20 M146,390.20V384.20 M147,390.20V384.20 M148,390.20V384.20 M149,389.00V384.20 M150,391.40V384.20 M151,389.00V384.20 M152,390.20V384.20 M153,390.20V384.20 M154,389.00V384.20 M155,389.00V384.20 M156,390.20V384.20 M157,389.00V383.00 M158,390.20V384.20 M159,389.00V383.00 M160,390.20V384.20 M161,389.00V383.00 M162,390.20V383.00 M163,390.20V384.20 M164,389.00V384.20 M165,390.20V384.20 M166,390.20V383.00 M167,390.20V383.00 M168,389.00V384.20 M169,390.20V384.20 M170,389.00V384.20 M171,485.00V384.20 M172,486.20V481.40 M173,486.20V384.20 M174,486.20V481.40 M175,485.00V384.20 M176,487.40V385.40 M177,486.20V481.40 M178,486.20V481.40 M179,486.20V481.40 M180,486.20V481.40 M181,485.00V384.20 M182,390.20V384.20 M183,390.20V383.00 M184,390.20V384.20 M185,390.20V384.20 M186,390.20V384.20 M187,390.20V384.20 M188,389.00V383.00 M189,390.20V383.00 M190,389.00V383.00 M191,390.20V384.20 M192,389.00V383.00 M193,389.00V381.80 M194,390.20V384.20 M195,389.00V383.00 M196,390.20V384.20 M197,390.20V384.20 M198,389.00V384.20 M199,390.20V383.00 M200,390.20V383.00 M201,389.00V384.20 M202,389.00V381.80 M203,390.20V384.20 M204,389.00V384.20 M205,389.00V381.80 M206,389.00V383.00 M207,390.20V383.00 M208,389.00V384.20 M209,390.20V383.00 M210,389.00V384.20 M211,390.20V383.00 M212,389.00V384.20 M213,389.00V384.20 M214,390.20V383.00 M215,390.20V384.20 M216,390.20V384.20 M217,389.00V384.20 M218,390.20V384.20 M219,390.20V384.20 M220,389.00V384.20 M221,389.00V384.20 M222,390.20V383.00 M223,389.00V384.20 M224,390.20V384.20 M225,389.00V384.20 M226,390.20V384.20 M227,390.20V384.20 M228,390.20V383.00 M229,389.00V384.20 M230,389.00V383.00 M231,390.20V383.00 M232,389.00V384.20 M233,389.00V384.20 M234,390.20V384.20 M235,389.00V383.00 M236,390.20V384.20 M237,389.00V384.20 M238,390.20V383.00 M239,390.20V383.00 M240,390.20V384.20 M241,389.00V384.20 M242,390.20V384.20 M243,389.00V384.20 M244,389.00V384.20 M245,389.00V384.20 M246,389.00V383.00 M247,389.00V383.00 M248,390.20V384.20 M249,390.20V383.00 M250,390.20V384.20 M251,390.20V384.20 M252,389.00V384.20 M253,389.00V384.20 M254,391.40V384.20 M255,390.20V384.20 M256,389.00V383.00 M257,390.20V383.00 M258,390.20V383.00 M259,389.00V384.20 M260,390.20V384.20 M261,389.00V384.20 M262,390.20V384.20 M263,390.20V384.20 M264,389.00V384.20 M265,389.00V384.20 M266,389.00V384.20 M267,390.20V383.00 M268,390.20V384.20 M269,390.20V384.20 M270,389.00V384.20 M271,390.20V384.20 M272,390.20V384.20 M273,389.00V384.20 M274,389.00V384.20 M275,390.20V384.20 M276,390.20V384.20 M277,390.20V384.20 M278,389.00V384.20 M279,389.00V384.20 M280,390.20V384.20 M281,389.00V383.00 M282,390.20V383.00 M283,389.00V384.20 M284,389.00V384.20 M285,389.00V383.00 M286,390.20V384.20 M287,390.20V383.00 M288,389.00V384.20 M289,390.20V384.20 M290,390.20V384.20 M291,389.00V383.00 M292,390.20V384.20 M293,390.20V383.00 M294,390.20V385.40 M295,389.00V384.20 M296,390.20V384.20 M297,390.20V384.20 M298,390.20V384.20 M299,390.20V383.00 M300,390.20V384.20 M301,390.20V384.20 M302,390.20V383.00 M303,389.00V384.20 M304,390.20V384.20 M305,390.20V384.20 M306,389.00V384.20 M307,389.00V383.00 M308,389.00V383.00 M309,390.20V383.00 M310,389.00V384.20 M311,390.20V384.20 M312,390.20V384.20 M313,390.20V384.20 M314,390.20V383.00 M315,390.20V384.20 M316,389.00V383.00 M317,390.20V384.20 M318,389.00V384.20 M319,389.00V383.00 M320,389.00V384.20 M321,389.00V384.20 M322,389.00V385.40 M323,390.20V383.00 M324,390.20V384.20 M325,390.20V384.20 M326,389.00V384.20 M327,390.20V384.20 M328,389.00V384.20 M329,390.20V384.20 M330,389.00V384.20 M331,389.00V384.20 M332,390.20V384.20 M333,390.20V384.20 M334,390.20V384.20 M335,389.00V384.20 M336,390.20V384.20 M337,390.20V384.20 M338,390.20V384.20 M339,389.00V384.20 M340,390.20V384.20 M341,390.20V384.20 M342,389.00V384.20 M343,390.20V384.20 M344,389.00V383.00 M345,389.00V383.00 M346,389.00V384.20 M347,389.00V384.20 M348,390.20V384.20 M349,389.00V384.20 M350,390.20V384.20 M351,390.20V384.20 M352,389.00V384.20 M353,390.20V384.20 M354,389.00V384.20 M355,390.20V384.20 M356,389.00V383.00 M357,390.20V383.00 M358,390.20V383.00 M359,389.00V384.20 M360,389.00V384.20 M361,389.00V384.20 M362,389.00V383.00 M363,390.20V383.00 M364,390.20V384.20 M365,390.20V384.20 M366,390.20V381.80 M367,389.00V384.20 M368,390.20V383.00 M369,390.20V384.20 M370,389.00V384.20 M371,389.00V384.20 M372,389.00V383.00 M373,389.00V383.00 M374,390.20V383.00 M375,389.00V384.20 M376,390.20V384.20 M377,389.00V384.20 M378,390.20V384.20 M379,390.20V383.00 M380,390.20V384.20 M381,391.40V384.20 M382,390.20V384.20 M383,389.00V384.20 M384,389.00V384.20 M385,390.20V384.20 M386,389.00V384.20 M387,390.20V384.20 M388,389.00V383.00 M389,390.20V384.20 M390,389.00V384.20 M391,389.00V384.20 M392,390.20V383.00 M393,390.20V384.20 M394,389.00V384.20 M395,390.20V384.20 M396,389.00V383.00 M397,389.00V384.20 M398,389.00V384.20 M399,390.20V384.20 M400,390.20V384.20 M401,390.20V383.00 M402,390.20V383.00 M403,390.20V384.20 M404,389.00V384.20 M405,390.20V383.00 M406,390.20V384.20 M407,389.00V384.20 M408,390.20V384.20 M409,390.20V384.20 M410,389.00V384.20 M411,390.20V383.00 M412,389.00V384.20 M413,390.20V383.00 M414,390.20V384.20 M415,389.00V384.20 M416,389.00V384.20 M417,389.00V383.00 M418,390.20V385.40 M419,390.20V383.00 M420,389.00V383.00 M421,389.00V384.20 M422,389.00V384.20 M423,390.20V384.20 M424,391.40V381.80 M425,390.20V384.20 M426,389.00V384.20 M427,389.00V384.20 M428,390.20V383.00 M429,389.00V384.20 M430,390.20V383.00 M431,390.20V384.20 M432,389.00V383.00 M433,390.20V383.00 M434,389.00V383.00 M435,389.00V384.20 M436,390.20V384.20 M437,389.00V384.20 M438,389.00V384.20 M439,390.20V384.20 M440,390.20V384.20 M441,390.20V384.20 M442,389.00V384.20 M443,389.00V384.20 M444,389.00V383.00 M445,389.00V383.00 M446,390.20V384.20 M447,390.20V384.20 M448,389.00V384.20 M449,389.00V384.20 M450,389.00V383.00 M451,389.00V383.00 M452,389.00V383.00 M453,390.20V384.20 M454,390.20V383.00 M455,390.20V384.20 M456,390.20V384.20 M457,389.00V384.20 M458,390.20V383.00 M459,390.20V384.20 M460,390.20V383.00 M461,390.20V384.20 M462,390.20V384.20 M463,390.20V384.20 M464,390.20V384.20 M465,390.20V384.20 M466,389.00V383.00 M467,390.20V384.20 M468,389.00V384.20 M469,390.20V383.00 M470,389.00V384.20 M471,390.20V384.20 M472,390.20V383.00 M473,391.40V384.20 M474,390.20V383.00 M475,390.20V384.20 M476,390.20V384.20 M477,390.20V384.20 M478,391.40V384.20 M479,389.00V383.00 M480,389.00V385.40 M481,390.20V384.20 M482,389.00V384.20 M483,390.20V384.20 M484,390.20V384.20 M485,390.20V383.00 M486,390.20V383.00 M487,390.20V384.20 M488,389.00V383.00 M489,389.00V384.20 M490,390.20V384.20 M491,391.40V383.00 M492,389.00V384.20 M493,389.00V383.00 M494,389.00V384.20 M495,389.00V383.00 M496,389.00V383.00 M497,389.00V383.00 M498,389.00V383.00 M499,390.20V384.20 M500,390.20V384.20 M501,390.20V383.00 M502,390.20V383.00 M503,389.00V384.20 M504,390.20V384.20 M505,390.20V384.20 M506,390.20V384.20 M507,390.20V384.20 M508,390.20V384.20 M509,390.20V384.20 M510,389.00V384.20 M511,390.20V384.20 M512,390.20V384.20 M513,389.00V384.20 M514,389.00V384.20 M515,390.20V384.20 M516,390.20V384.20 M517,390.20V384.20 M518,389.00V381.80 M519,389.00V384.20 M520,390.20V384.20 M521,389.00V384.20 M522,390.20V383.00 M523,390.20V384.20 M524,390.20V384.20 M525,390.20V384.20 M526,390.20V384.20 M527,390.20V384.20 M528,389.00V383.00 M529,390.20V384.20 M530,390.20V383.00 M531,389.00V381.80 M532,390.20V384.20 M533,390.20V384.20 M534,390.20V384.20 M535,390.20V384.20 M536,391.40V384.20 M537,390.20V384.20 M538,389.00V384.20 M539,390.20V384.20 M540,390.20V383.00 M541,389.00V384.20 M542,390.20V384.20 M543,390.20V384.20 M544,390.20V384.20 M545,390.20V384.20 M546,390.20V384.20 M547,390.20V383.00 M548,389.00V383.00 M549,390.20V384.20 M550,389.00V384.20 M551,390.20V383.00 M552,389.00V384.20 M553,390.20V384.20 M554,390.20V384.20 M555,389.00V383.00 M556,390.20V383.00 M557,389.00V384.20 M558,390.20V384.20 M559,389.00V384.20 M560,389.00V383.00 M561,390.20V384.20 M562,389.00V384.20 M563,390.20V384.20 M564,390.20V384.20 M565,389.00V384.20 M566,390.20V384.20 M567,389.00V384.20 M568,389.00V383.00 M569,390.20V383.00 M570,389.00V384.20 M571,390.20V383.00 M572,390.20V384.20 M573,389.00V384.20 M574,390.20V384.20 M575,389.00V384.20 M576,390.20V384.20 M577,390.20V383.00 M578,389.00V384.20 M579,485.00V384.20 M580,486.20V481.40 M581,487.40V386.60 M582,486.20V481.40 M583,486.20V384.20 M584,486.20V384.20 M585,486.20V481.40 M586,486.20V481.40 M587,486.20V480.20 M588,486.20V481.40 M589,485.00V384.20 M590,389.00V384.20 M591,390.20V383.00 M592,390.20V384.20 M593,389.00V384.20 M594,389.00V384.20 M595,389.00V384.20 M596,389.00V384.20 M597,389.00V383.00 M598,390.20V383.00 M599,389.00V383.00 M600,389.00V384.20 M601,390.20V384.20 M602,389.00V383.00 M603,389.00V384.20 M604,390.20V384.20 M605,390.20V384.20 M606,390.20V383.00 M607,389.00V384.20 M608,389.00V384.20 M609,390.20V383.00 M610,389.00V383.00 M611,390.20V384.20 M612,390.20V383.00 M613,389.00V384.20 M614,391.40V384.20 M615,390.20V384.20 M616,390.20V383.00 M617,389.00V384.20 M618,390.20V383.00 M619,390.20V384.20 M620,389.00V384.20 M621,389.00V384.20 M622,389.00V384.20 M623,390.20V384.20 M624,390.20V383.00 M625,389.00V384.20 M626,389.00V384.20 M627,390.20V384.20 M628,390.20V384.20 M629,390.20V384.20 M630,390.20V384.20 M631,390.20V384.20 M632,389.00V383.00 M633,389.00V384.20 M634,390.20V385.40 M635,390.20V384.20 M636,390.20V381.80 M637,389.00V383.00 M638,390.20V384.20 M639,389.00V384.20 M640,390.20V384.20 M641,390.20V383.00 M642,390.20V384.20 M643,390.20V384.20 M644,389.00V383.00 M645,389.00V384.20 M646,389.00V384.20 M647,390.20V384.20 M648,390.20V383.00 M649,389.00V384.20 M650,390.20V383.00 M651,389.00V384.20 M652,390.20V383.00 M653,390.20V384.20 M654,389.00V384.20 M655,389.00V383.00 M656,390.20V384.20 M657,389.00V384.20 M658,389.00V384.20 M659,390.20V384.20 M660,389.00V384.20 M661,389.00V384.20 M662,390.20V384.20 M663,389.00V384.20 M664,390.20V383.00 M665,389.00V384.20 M666,390.20V383.00 M667,390.20V383.00 M668,390.20V384.20 M669,390.20V384.20 M670,390.20V384.20 M671,390.20V384.20 M672,390.20V384.20 M673,389.00V384.20 M674,390.20V384.20 M675,389.00V383.00 M676,390.20V384.20 M677,390.20V383.00 M678,390.20V384.20 M679,390.20V384.20 M680,389.00V384.20 M681,390.20V384.20 M682,390.20V384.20 M683,389.00V384.20 M684,390.20V383.00 M685,390.20V383.00 M686,390.20V384.20 M687,389.00V383.00 M688,390.20V383.00 M689,389.00V384.20 M690,390.20V384.20 M691,390.20V384.20 M692,390.20V384.20 M693,390.20V381.80 M694,390.20V383.00 M695,390.20V384.20 M696,390.20V384.20 M697,390.20V384.20 M698,390.20V384.20 M699,389.00V383.00 M700,390.20V384.20 M701,389.00V384.20 M702,390.20V384.20 M703,389.00V383.00 M704,389.00V384.20 M705,390.20V384.20 M706,389.00V384.20 M707,390.20V384.20 M708,390.20V383.00 M709,390.20V384.20 M710,389.00V383.00 M711,390.20V384.20 M712,390.20V384.20 M713,390.20V381.80 M714,390.20V384.20 M715,389.00V385.40 M716,389.00V384.20 M717,389.00V383.00 M718,389.00V384.20 M719,390.20V383.00 M720,390.20V383.00 M721,390.20V385.40 M722,389.00V384.20 M723,389.00V384.20 M724,390.20V383.00 M725,389.00V384.20 M726,389.00V384.20 M727,389.00V383.00 M728,390.20V384.20 M729,390.20V384.20 M730,390.20V384.20 M731,390.20V384.20 M732,389.00V383.00 M733,389.00V384.20 M734,389.00V384.20 M735,389.00V383.00 M736,390.20V384.20 M737,390.20V384.20 M738,390.20V383.00 M739,390.20V384.20 M740,390.20V384.20 M741,390.20V384.20 M742,389.00V383.00 M743,389.00V384.20 M744,389.00V383.00 M745,390.20V384.20 M746,390.20V383.00 M747,389.00V384.20 M748,390.20V383.00 M749,390.20V384.20 M750,389.00V384.20 M751,389.00V383.00 M752,390.20V383.00 M753,390.20V383.00 M754,390.20V384.20 M755,389.00V384.20 M756,390.20V384.20 M757,389.00V384.20 M758,390.20V384.20 M759,390.20V383.00 M760,390.20V384.20 M761,389.00V384.20 M762,391.40V383.00 M763,390.20V384.20 M764,389.00V384.20 M765,390.20V384.20 M766,390.20V383.00 M767,390.20V384.20 M768,389.00V383.00 M769,389.00V384.20 M770,389.00V384.20 M771,390.20V383.00 M772,390.20V383.00 M773,389.00V384.20 M774,389.00V384.20 M775,389.00V383.00 M776,389.00V384.20 M777,390.20V384.20 M778,390.20V384.20 M779,390.20V384.20 M780,389.00V383.00 M781,389.00V384.20 M782,389.00V384.20 M783,389.00V383.00 M784,390.20V384.20 M785,389.00V383.00 M786,390.20V384.20 M787,390.20V383.00 M788,389.00V384.20 M789,390.20V384.20 M790,389.00V384.20 M791,389.00V383.00 M792,389.00V384.20 M793,389.00V384.20 M794,389.00V383.00 M795,390.20V384.20 M796,389.00V383.00 M797,389.00V383.00 M798,389.00V384.20 M799,389.00V384.20 M800,389.00V383.00 M801,390.20V381.80 M802,390.20V384.20 M803,389.00V384.20 M804,389.00V383.00 M805,389.00V383.00 M806,390.20V384.20 M807,389.00V383.00 M808,389.00V383.00 M809,390.20V383.00 M810,390.20V383.00 M811,389.00V384.20 M812,390.20V384.20 M813,389.00V383.00 M814,390.20V384.20 M815,390.20V384.20 M816,390.20V384.20 M817,389.00V384.20 M818,390.20V383.00 M819,390.20V383.00 M820,390.20V383.00 M821,390.20V384.20 M822,390.20V383.00 M823,390.20V384.20 M824,389.00V383.00 M825,390.20V383.00 M826,389.00V384.20 M827,389.00V383.00 M828,389.00V383.00 M829,390.20V384.20 M830,389.00V384.20 M831,389.00V383.00 M832,390.20V384.20 M833,390.20V384.20 M834,389.00V384.20 M835,389.00V383.00 M836,389.00V384.20 M837,389.00V384.20 M838,390.20V384.20 M839,390.20V384.20 M840,389.00V384.20 M841,390.20V383.00 M842,389.00V384.20 M843,389.00V384.20 M844,389.00V384.20 M845,389.00V383.00 M846,389.00V383.00 M847,390.20V384.20 M848,390.20V384.20 M849,390.20V383.00 M850,389.00V384.20 M851,390.20V383.00 M852,389.00V383.00 M853,390.20V384.20 M854,390.20V383.00 M855,390.20V384.20 M856,389.00V383.00 M857,389.00V383.00 M858,389.00V384.20 M859,389.00V383.00 M860,389.00V383.00 M861,390.20V384.20 M862,389.00V384.20 M863,389.00V384.20 M864,389.00V384.20 M865,389.00V383.00 M866,390.20V384.20 M867,389.00V384.20 M868,390.20V384.20 M869,389.00V383.00 M870,389.00V384.20 M871,389.00V384.20 M872,389.00V383.00 M873,389.00V384.20 M874,389.00V384.20 M875,390.20V381.80 M876,390.20V384.20 M877,389.00V384.20 M878,389.00V383.00 M879,389.00V383.00 M880,390.20V383.00 M881,389.00V384.20 M882,389.00V384.20 M883,390.20V383.00 M884,390.20V383.00 M885,390.20V384.20 M886,389.00V384.20 M887,390.20V384.20 M888,389.00V384.20 M889,389.00V384.20 M890,389.00V384.20 M891,390.20V384.20 M892,390.20V384.20 M893,390.20V384.20 M894,390.20V384.20 M895,390.20V384.20 M896,390.20V384.20 M897,389.00V384.20 M898,390.20V383.00 M899,390.20V383.00 M900,390.20V384.20 M901,390.20V383.00 M902,389.00V384.20 M903,390.20V383.00 M904,390.20V384.20 M905,390.20V384.20 M906,390.20V384.20 M907,389.00V384.20 M908,389.00V383.00 M909,389.00V384.20 M910,389.00V383.00 M911,390.20V384.20 M912,390.20V384.20 M913,390.20V383.00 M914,390.20V384.20 M915,390.20V384.20 M916,390.20V384.20 M917,390.20V383.00 M918,390.20V384.20 M919,390.20V383.00 M920,391.40V384.20 M921,389.00V384.20 M922,390.20V383.00 M923,390.20V384.20 M924,390.20V384.20 M925,390.20V384.20 M926,389.00V383.00 M927,389.00V383.00 M928,389.00V383.00 M929,390.20V383.00 M930,390.20V384.20 M931,390.20V383.00 M932,390.20V384.20 M933,390.20V383.00 M934,390.20V384.20 M935,389.00V384.20 M936,390.20V384.20 M937,390.20V383.00 M938,389.00V384.20 M939,390.20V384.20 M940,389.00V384.20 M941,389.00V384.20 M942,390.20V383.00 M943,390.20V383.00 M944,390.20V385.40 M945,390.20V384.20 M946,390.20V384.20 M947,390.20V384.20 M948,391.40V384.20 M949,389.00V383.00 M950,390.20V384.20 M951,389.00V384.20 M952,390.20V383.00 M953,390.20V383.00 M954,390.20V384.20 M955,390.20V384.20 M956,390.20V384.20 M957,390.20V384.20 M958,390.20V383.00 M959,390.20V384.20 M960,390.20V384.20 M961,391.40V383.00 M962,390.20V384.20 M963,390.20V383.00 M964,390.20V384.20 M965,390.20V384.20 M966,389.00V383.00 M967,390.20V383.00 M968,390.20V384.20 M969,390.20V384.20 M970,389.00V384.20 M971,390.20V384.20 M972,390.20V384.20 M973,390.20V384.20 M974,390.20V383.00 M975,390.20V383.00 M976,390.20V384.20 M977,390.20V384.20 M978,389.00V384.20 M979,390.20V384.20 M980,390.20V383.00 M981,389.00V384.20 M982,389.00V384.20 M983,390.20V384.20 M984,390.20V383.00 M985,389.00V383.00 M986,390.20V384.20 M987,483.80V384.20 M988,486.20V480.20 M989,486.20V384.20 M990,486.20V481.40 M991,485.00V384.20 M992,486.20V481.40 M993,486.20V481.40 M994,486.20V481.40 M995,486.20V481.40 M996,486.20V481.40 M997,486.20V384.20 M998,389.00V384.20 M999,390.20V383.00 M1000,389.00V384.20 M1001,390.20V384.20 M1002,390.20V384.20 M1003,389.00V383.00 M1004,390.20V384.20 M1005,390.20V383.00 M1006,390.20V384.20 M1007,390.20V384.20 M1008,390.20V383.00 M1009,389.00V384.20 M1010,390.20V383.00 M1011,389.00V383.00 M1012,389.00V384.20 M1013,389.00V383.00 M1014,390.20V384.20 M1015,390.20V384.20 M1016,389.00V384.20 M1017,389.00V384.20 M1018,389.00V381.80 M1019,390.20V385.40 M1020,390.20V384.20 M1021,391.40V384.20 M1022,389.00V383.00 M1023,389.00V384.20 M1024,390.20V381.80 M1025,389.00V383.00 M1026,390.20V384.20 M1027,390.20V383.00 M1028,389.00V383.00 M1029,391.40V384.20 M1030,389.00V384.20 M1031,389.00V383.00 M1032,390.20V384.20 M1033,390.20V384.20 M1034,390.20V383.00 M1035,389.00V383.00 M1036,390.20V384.20 M1037,390.20V384.20 M1038,389.00V384.20 M1039,390.20V384.20 M1040,389.00V384.20 M1041,389.00V383.00 M1042,390.20V384.20 M1043,389.00V384.20 M1044,390.20V384.20 M1045,389.00V384.20 M1046,389.00V384.20 M1047,390.20V384.20 M1048,390.20V384.20 M1049,389.00V384.20 M1050,390.20V384.20 M1051,390.20V384.20 M1052,389.00V384.20 M1053,389.00V384.20 M1054,389.00V383.00 M1055,390.20V384.20 M1056,389.00V383.00 M1057,390.20V384.20 M1058,390.20V384.20 M1059,389.00V384.20" stroke="#059669" fill="none"/>
<path d="M580.0,365V500" stroke="#777" stroke-dasharray="3 3"/>
<text x="10" y="580" font-family="sans-serif" font-size="12">CH4 DIS_B</text>
<path d="M100,640H1060" stroke="#ddd"/>
<path d="M100,590.5H1060" stroke="#ddd"/>
<path d="M100,541.0H1060" stroke="#ddd"/>
<path d="M100,640.00V635.20 M101,640.00V635.20 M102,640.00V634.00 M103,640.00V632.80 M104,640.00V635.20 M105,640.00V634.00 M106,640.00V634.00 M107,640.00V634.00 M108,640.00V634.00 M109,640.00V634.00 M110,640.00V634.00 M111,640.00V634.00 M112,640.00V634.00 M113,640.00V634.00 M114,640.00V634.00 M115,640.00V635.20 M116,640.00V634.00 M117,640.00V635.20 M118,640.00V634.00 M119,640.00V634.00 M120,640.00V634.00 M121,640.00V632.80 M122,640.00V636.40 M123,640.00V635.20 M124,640.00V635.20 M125,640.00V634.00 M126,640.00V635.20 M127,640.00V635.20 M128,640.00V634.00 M129,640.00V635.20 M130,640.00V635.20 M131,640.00V634.00 M132,640.00V635.20 M133,640.00V635.20 M134,640.00V635.20 M135,640.00V635.20 M136,640.00V635.20 M137,640.00V634.00 M138,640.00V634.00 M139,640.00V635.20 M140,641.20V634.00 M141,641.20V634.00 M142,640.00V632.80 M143,640.00V635.20 M144,640.00V634.00 M145,640.00V632.80 M146,640.00V632.80 M147,640.00V634.00 M148,640.00V634.00 M149,640.00V635.20 M150,640.00V635.20 M151,640.00V634.00 M152,640.00V635.20 M153,640.00V635.20 M154,641.20V635.20 M155,640.00V635.20 M156,640.00V635.20 M157,640.00V635.20 M158,640.00V635.20 M159,640.00V632.80 M160,640.00V635.20 M161,640.00V634.00 M162,640.00V635.20 M163,640.00V635.20 M164,640.00V634.00 M165,640.00V635.20 M166,640.00V635.20 M167,641.20V634.00 M168,640.00V634.00 M169,640.00V634.00 M170,640.00V632.80 M171,640.00V635.20 M172,640.00V634.00 M173,640.00V634.00 M174,640.00V635.20 M175,640.00V634.00 M176,640.00V635.20 M177,640.00V632.80 M178,640.00V634.00 M179,640.00V634.00 M180,640.00V635.20 M181,640.00V635.20 M182,640.00V634.00 M183,640.00V634.00 M184,641.20V634.00 M185,640.00V635.20 M186,640.00V635.20 M187,641.20V635.20 M188,640.00V634.00 M189,640.00V635.20 M190,640.00V634.00 M191,640.00V635.20 M192,640.00V634.00 M193,640.00V634.00 M194,640.00V634.00 M195,640.00V634.00 M196,640.00V634.00 M197,640.00V634.00 M198,640.00V634.00 M199,640.00V635.20 M200,640.00V635.20 M201,640.00V635.20 M202,640.00V634.00 M203,640.00V635.20 M204,640.00V635.20 M205,640.00V635.20 M206,640.00V634.00 M207,640.00V635.20 M208,640.00V634.00 M209,640.00V634.00 M210,640.00V634.00 M211,640.00V634.00 M212,640.00V634.00 M213,640.00V635.20 M214,641.20V634.00 M215,640.00V634.00 M216,640.00V634.00 M217,640.00V635.20 M218,640.00V635.20 M219,640.00V635.20 M220,640.00V634.00 M221,640.00V634.00 M222,640.00V634.00 M223,640.00V635.20 M224,640.00V634.00 M225,640.00V635.20 M226,640.00V635.20 M227,640.00V635.20 M228,640.00V634.00 M229,640.00V635.20 M230,640.00V635.20 M231,640.00V635.20 M232,640.00V635.20 M233,640.00V635.20 M234,640.00V635.20 M235,640.00V635.20 M236,641.20V635.20 M237,640.00V635.20 M238,640.00V632.80 M239,640.00V635.20 M240,640.00V635.20 M241,640.00V635.20 M242,640.00V635.20 M243,640.00V634.00 M244,640.00V632.80 M245,640.00V635.20 M246,640.00V635.20 M247,640.00V635.20 M248,640.00V635.20 M249,640.00V635.20 M250,640.00V635.20 M251,640.00V634.00 M252,640.00V635.20 M253,640.00V634.00 M254,640.00V635.20 M255,640.00V635.20 M256,640.00V635.20 M257,640.00V635.20 M258,640.00V635.20 M259,640.00V634.00 M260,640.00V632.80 M261,640.00V634.00 M262,640.00V634.00 M263,640.00V634.00 M264,640.00V636.40 M265,641.20V635.20 M266,640.00V634.00 M267,640.00V635.20 M268,640.00V634.00 M269,640.00V635.20 M270,641.20V634.00 M271,640.00V635.20 M272,640.00V635.20 M273,641.20V634.00 M274,640.00V634.00 M275,640.00V634.00 M276,640.00V634.00 M277,640.00V635.20 M278,640.00V634.00 M279,640.00V635.20 M280,640.00V634.00 M281,640.00V632.80 M282,640.00V635.20 M283,640.00V635.20 M284,640.00V634.00 M285,640.00V634.00 M286,640.00V635.20 M287,640.00V634.00 M288,640.00V635.20 M289,640.00V634.00 M290,640.00V635.20 M291,640.00V635.20 M292,640.00V635.20 M293,640.00V635.20 M294,640.00V634.00 M295,640.00V634.00 M296,640.00V634.00 M297,640.00V635.20 M298,640.00V635.20 M299,640.00V635.20 M300,640.00V635.20 M301,640.00V635.20 M302,640.00V634.00 M303,640.00V635.20 M304,640.00V635.20 M305,640.00V634.00 M306,640.00V635.20 M307,640.00V634.00 M308,640.00V634.00 M309,641.20V634.00 M310,640.00V634.00 M311,640.00V634.00 M312,640.00V634.00 M313,640.00V635.20 M314,640.00V635.20 M315,640.00V634.00 M316,640.00V634.00 M317,640.00V635.20 M318,641.20V635.20 M319,640.00V635.20 M320,640.00V635.20 M321,640.00V635.20 M322,640.00V634.00 M323,640.00V635.20 M324,640.00V635.20 M325,641.20V635.20 M326,640.00V635.20 M327,640.00V634.00 M328,640.00V634.00 M329,640.00V632.80 M330,640.00V635.20 M331,641.20V634.00 M332,640.00V634.00 M333,640.00V634.00 M334,640.00V634.00 M335,640.00V635.20 M336,640.00V634.00 M337,640.00V634.00 M338,640.00V635.20 M339,640.00V634.00 M340,640.00V634.00 M341,640.00V635.20 M342,640.00V632.80 M343,640.00V635.20 M344,640.00V635.20 M345,640.00V634.00 M346,640.00V635.20 M347,640.00V635.20 M348,640.00V635.20 M349,640.00V635.20 M350,640.00V634.00 M351,640.00V635.20 M352,640.00V635.20 M353,640.00V635.20 M354,640.00V634.00 M355,640.00V635.20 M356,640.00V634.00 M357,640.00V634.00 M358,640.00V635.20 M359,640.00V634.00 M360,640.00V634.00 M361,640.00V635.20 M362,640.00V634.00 M363,640.00V634.00 M364,640.00V634.00 M365,641.20V634.00 M366,640.00V634.00 M367,640.00V634.00 M368,640.00V634.00 M369,640.00V634.00 M370,640.00V632.80 M371,640.00V634.00 M372,640.00V635.20 M373,640.00V635.20 M374,640.00V632.80 M375,641.20V634.00 M376,640.00V635.20 M377,640.00V634.00 M378,640.00V635.20 M379,640.00V635.20 M380,640.00V635.20 M381,640.00V634.00 M382,640.00V635.20 M383,640.00V635.20 M384,641.20V635.20 M385,640.00V635.20 M386,640.00V634.00 M387,640.00V635.20 M388,640.00V634.00 M389,640.00V634.00 M390,640.00V635.20 M391,640.00V635.20 M392,640.00V635.20 M393,640.00V634.00 M394,640.00V635.20 M395,640.00V635.20 M396,640.00V634.00 M397,640.00V635.20 M398,640.00V635.20 M399,640.00V634.00 M400,641.20V635.20 M401,640.00V635.20 M402,640.00V634.00 M403,640.00V635.20 M404,640.00V635.20 M405,640.00V635.20 M406,640.00V634.00 M407,640.00V634.00 M408,640.00V634.00 M409,641.20V634.00 M410,640.00V635.20 M411,640.00V634.00 M412,640.00V635.20 M413,640.00V634.00 M414,640.00V634.00 M415,640.00V634.00 M416,640.00V634.00 M417,640.00V635.20 M418,640.00V635.20 M419,640.00V635.20 M420,640.00V635.20 M421,640.00V634.00 M422,640.00V634.00 M423,640.00V635.20 M424,640.00V635.20 M425,640.00V635.20 M426,640.00V635.20 M427,640.00V635.20 M428,640.00V635.20 M429,640.00V634.00 M430,640.00V635.20 M431,640.00V634.00 M432,640.00V634.00 M433,641.20V634.00 M434,640.00V634.00 M435,640.00V635.20 M436,640.00V635.20 M437,640.00V635.20 M438,640.00V635.20 M439,640.00V635.20 M440,640.00V634.00 M441,640.00V634.00 M442,640.00V635.20 M443,640.00V634.00 M444,640.00V635.20 M445,640.00V634.00 M446,640.00V634.00 M447,640.00V634.00 M448,640.00V635.20 M449,640.00V632.80 M450,640.00V634.00 M451,640.00V635.20 M452,640.00V635.20 M453,640.00V634.00 M454,640.00V634.00 M455,640.00V635.20 M456,640.00V634.00 M457,640.00V635.20 M458,640.00V635.20 M459,640.00V632.80 M460,640.00V634.00 M461,640.00V634.00 M462,640.00V635.20 M463,640.00V635.20 M464,640.00V634.00 M465,640.00V635.20 M466,640.00V635.20 M467,640.00V634.00 M468,640.00V635.20 M469,640.00V634.00 M470,640.00V635.20 M471,640.00V635.20 M472,640.00V635.20 M473,640.00V635.20 M474,640.00V634.00 M475,640.00V632.80 M476,640.00V634.00 M477,640.00V635.20 M478,640.00V635.20 M479,640.00V635.20 M480,640.00V635.20 M481,640.00V634.00 M482,640.00V635.20 M483,640.00V635.20 M484,640.00V635.20 M485,641.20V634.00 M486,640.00V636.40 M487,640.00V634.00 M488,640.00V634.00 M489,640.00V635.20 M490,640.00V634.00 M491,640.00V634.00 M492,640.00V635.20 M493,640.00V634.00 M494,640.00V634.00 M495,641.20V634.00 M496,640.00V635.20 M497,640.00V634.00 M498,640.00V635.20 M499,640.00V635.20 M500,641.20V634.00 M501,640.00V635.20 M502,640.00V634.00 M503,640.00V635.20 M504,640.00V634.00 M505,640.00V634.00 M506,640.00V635.20 M507,640.00V635.20 M508,640.00V635.20 M509,640.00V635.20 M510,640.00V634.00 M511,640.00V635.20 M512,640.00V634.00 M513,640.00V635.20 M514,640.00V634.00 M515,640.00V635.20 M516,640.00V634.00 M517,640.00V635.20 M518,640.00V634.00 M519,640.00V634.00 M520,640.00V635.20 M521,640.00V635.20 M522,640.00V635.20 M523,640.00V634.00 M524,640.00V635.20 M525,640.00V635.20 M526,640.00V635.20 M527,640.00V635.20 M528,640.00V635.20 M529,641.20V634.00 M530,640.00V634.00 M531,640.00V634.00 M532,640.00V635.20 M533,640.00V634.00 M534,640.00V635.20 M535,640.00V634.00 M536,640.00V635.20 M537,641.20V635.20 M538,640.00V635.20 M539,640.00V635.20 M540,640.00V635.20 M541,640.00V634.00 M542,641.20V634.00 M543,640.00V634.00 M544,640.00V635.20 M545,640.00V635.20 M546,640.00V634.00 M547,640.00V634.00 M548,640.00V635.20 M549,640.00V635.20 M550,640.00V634.00 M551,640.00V635.20 M552,640.00V635.20 M553,640.00V635.20 M554,640.00V635.20 M555,640.00V635.20 M556,640.00V635.20 M557,640.00V635.20 M558,640.00V634.00 M559,640.00V632.80 M560,640.00V634.00 M561,640.00V634.00 M562,640.00V635.20 M563,640.00V635.20 M564,640.00V635.20 M565,640.00V634.00 M566,640.00V634.00 M567,640.00V636.40 M568,640.00V635.20 M569,640.00V635.20 M570,640.00V635.20 M571,640.00V634.00 M572,640.00V635.20 M573,640.00V634.00 M574,640.00V635.20 M575,641.20V635.20 M576,640.00V635.20 M577,641.20V635.20 M578,640.00V634.00 M579,640.00V634.00 M580,640.00V634.00 M581,640.00V632.80 M582,640.00V635.20 M583,640.00V634.00 M584,640.00V635.20 M585,640.00V635.20 M586,640.00V634.00 M587,640.00V635.20 M588,640.00V634.00 M589,640.00V635.20 M590,640.00V635.20 M591,640.00V635.20 M592,640.00V635.20 M593,640.00V635.20 M594,640.00V634.00 M595,640.00V635.20 M596,640.00V635.20 M597,640.00V635.20 M598,640.00V634.00 M599,640.00V634.00 M600,640.00V634.00 M601,641.20V634.00 M602,640.00V635.20 M603,640.00V634.00 M604,640.00V634.00 M605,640.00V634.00 M606,640.00V635.20 M607,640.00V634.00 M608,640.00V634.00 M609,640.00V635.20 M610,640.00V634.00 M611,640.00V635.20 M612,640.00V632.80 M613,640.00V635.20 M614,640.00V635.20 M615,640.00V634.00 M616,640.00V634.00 M617,641.20V634.00 M618,640.00V635.20 M619,640.00V634.00 M620,640.00V635.20 M621,640.00V635.20 M622,640.00V634.00 M623,640.00V635.20 M624,640.00V634.00 M625,641.20V635.20 M626,640.00V635.20 M627,640.00V634.00 M628,641.20V635.20 M629,640.00V634.00 M630,640.00V635.20 M631,640.00V634.00 M632,641.20V635.20 M633,640.00V635.20 M634,640.00V634.00 M635,640.00V635.20 M636,640.00V634.00 M637,640.00V634.00 M638,640.00V634.00 M639,640.00V635.20 M640,640.00V634.00 M641,640.00V634.00 M642,640.00V635.20 M643,640.00V635.20 M644,640.00V635.20 M645,640.00V634.00 M646,640.00V634.00 M647,640.00V635.20 M648,640.00V635.20 M649,640.00V635.20 M650,641.20V634.00 M651,640.00V635.20 M652,640.00V635.20 M653,640.00V635.20 M654,640.00V635.20 M655,640.00V635.20 M656,640.00V634.00 M657,640.00V634.00 M658,640.00V634.00 M659,640.00V635.20 M660,640.00V635.20 M661,640.00V635.20 M662,640.00V634.00 M663,640.00V635.20 M664,640.00V635.20 M665,640.00V634.00 M666,640.00V635.20 M667,641.20V635.20 M668,641.20V634.00 M669,640.00V635.20 M670,641.20V635.20 M671,640.00V635.20 M672,640.00V635.20 M673,640.00V635.20 M674,640.00V635.20 M675,640.00V635.20 M676,640.00V635.20 M677,640.00V634.00 M678,640.00V634.00 M679,640.00V634.00 M680,640.00V634.00 M681,641.20V634.00 M682,640.00V634.00 M683,640.00V635.20 M684,641.20V634.00 M685,641.20V634.00 M686,640.00V635.20 M687,640.00V634.00 M688,641.20V635.20 M689,640.00V634.00 M690,640.00V634.00 M691,640.00V634.00 M692,640.00V635.20 M693,640.00V635.20 M694,640.00V635.20 M695,640.00V634.00 M696,640.00V634.00 M697,640.00V635.20 M698,640.00V635.20 M699,640.00V634.00 M700,641.20V634.00 M701,640.00V634.00 M702,640.00V634.00 M703,641.20V634.00 M704,640.00V635.20 M705,640.00V634.00 M706,640.00V635.20 M707,640.00V635.20 M708,640.00V634.00 M709,640.00V635.20 M710,641.20V635.20 M711,641.20V634.00 M712,640.00V635.20 M713,640.00V635.20 M714,640.00V634.00 M715,640.00V634.00 M716,640.00V634.00 M717,640.00V635.20 M718,640.00V635.20 M719,640.00V634.00 M720,640.00V634.00 M721,640.00V635.20 M722,640.00V635.20 M723,640.00V635.20 M724,640.00V635.20 M725,640.00V634.00 M726,640.00V634.00 M727,640.00V634.00 M728,640.00V635.20 M729,640.00V635.20 M730,640.00V634.00 M731,641.20V635.20 M732,640.00V634.00 M733,640.00V634.00 M734,640.00V634.00 M735,640.00V634.00 M736,640.00V635.20 M737,640.00V635.20 M738,640.00V635.20 M739,640.00V635.20 M740,640.00V635.20 M741,641.20V635.20 M742,640.00V632.80 M743,640.00V634.00 M744,640.00V635.20 M745,640.00V635.20 M746,640.00V634.00 M747,640.00V634.00 M748,640.00V634.00 M749,640.00V635.20 M750,640.00V634.00 M751,640.00V635.20 M752,640.00V635.20 M753,640.00V634.00 M754,640.00V634.00 M755,640.00V634.00 M756,640.00V634.00 M757,640.00V632.80 M758,640.00V635.20 M759,640.00V634.00 M760,640.00V635.20 M761,640.00V635.20 M762,640.00V634.00 M763,640.00V635.20 M764,640.00V635.20 M765,640.00V635.20 M766,640.00V634.00 M767,640.00V634.00 M768,640.00V635.20 M769,640.00V634.00 M770,640.00V635.20 M771,640.00V634.00 M772,640.00V634.00 M773,640.00V635.20 M774,640.00V634.00 M775,640.00V632.80 M776,640.00V634.00 M777,640.00V634.00 M778,640.00V634.00 M779,640.00V634.00 M780,640.00V634.00 M781,640.00V635.20 M782,640.00V635.20 M783,640.00V634.00 M784,640.00V634.00 M785,640.00V634.00 M786,640.00V634.00 M787,640.00V634.00 M788,640.00V634.00 M789,640.00V635.20 M790,640.00V634.00 M791,640.00V634.00 M792,640.00V634.00 M793,640.00V634.00 M794,640.00V634.00 M795,640.00V634.00 M796,641.20V634.00 M797,640.00V632.80 M798,640.00V634.00 M799,640.00V634.00 M800,640.00V634.00 M801,640.00V635.20 M802,640.00V634.00 M803,640.00V635.20 M804,640.00V634.00 M805,640.00V634.00 M806,640.00V635.20 M807,640.00V632.80 M808,640.00V634.00 M809,640.00V634.00 M810,640.00V634.00 M811,640.00V635.20 M812,641.20V634.00 M813,640.00V635.20 M814,640.00V634.00 M815,640.00V634.00 M816,640.00V634.00 M817,640.00V634.00 M818,640.00V634.00 M819,640.00V632.80 M820,640.00V634.00 M821,640.00V634.00 M822,640.00V635.20 M823,640.00V634.00 M824,640.00V634.00 M825,640.00V635.20 M826,640.00V635.20 M827,640.00V634.00 M828,640.00V634.00 M829,640.00V635.20 M830,640.00V634.00 M831,641.20V634.00 M832,640.00V634.00 M833,640.00V635.20 M834,640.00V634.00 M835,640.00V634.00 M836,640.00V634.00 M837,640.00V635.20 M838,640.00V632.80 M839,640.00V634.00 M840,640.00V634.00 M841,640.00V634.00 M842,640.00V634.00 M843,640.00V635.20 M844,640.00V635.20 M845,640.00V634.00 M846,640.00V634.00 M847,640.00V634.00 M848,640.00V634.00 M849,640.00V635.20 M850,640.00V635.20 M851,640.00V635.20 M852,640.00V634.00 M853,640.00V635.20 M854,640.00V635.20 M855,640.00V634.00 M856,640.00V634.00 M857,640.00V634.00 M858,640.00V635.20 M859,640.00V634.00 M860,640.00V635.20 M861,640.00V634.00 M862,640.00V634.00 M863,641.20V635.20 M864,641.20V634.00 M865,640.00V634.00 M866,640.00V634.00 M867,640.00V635.20 M868,641.20V635.20 M869,640.00V635.20 M870,640.00V634.00 M871,641.20V634.00 M872,640.00V634.00 M873,641.20V634.00 M874,640.00V634.00 M875,640.00V634.00 M876,640.00V635.20 M877,640.00V635.20 M878,640.00V634.00 M879,640.00V634.00 M880,640.00V635.20 M881,640.00V635.20 M882,640.00V634.00 M883,640.00V635.20 M884,641.20V634.00 M885,640.00V635.20 M886,641.20V634.00 M887,640.00V635.20 M888,640.00V635.20 M889,640.00V634.00 M890,640.00V635.20 M891,640.00V634.00 M892,640.00V635.20 M893,640.00V634.00 M894,640.00V634.00 M895,640.00V634.00 M896,640.00V634.00 M897,640.00V635.20 M898,640.00V634.00 M899,640.00V634.00 M900,640.00V635.20 M901,640.00V634.00 M902,640.00V634.00 M903,640.00V635.20 M904,640.00V634.00 M905,640.00V635.20 M906,640.00V634.00 M907,640.00V634.00 M908,640.00V635.20 M909,640.00V635.20 M910,641.20V634.00 M911,640.00V634.00 M912,640.00V634.00 M913,640.00V634.00 M914,640.00V634.00 M915,640.00V634.00 M916,640.00V634.00 M917,640.00V634.00 M918,640.00V635.20 M919,640.00V635.20 M920,640.00V634.00 M921,640.00V634.00 M922,640.00V634.00 M923,640.00V634.00 M924,640.00V635.20 M925,640.00V634.00 M926,640.00V635.20 M927,640.00V635.20 M928,640.00V635.20 M929,640.00V634.00 M930,641.20V634.00 M931,640.00V634.00 M932,640.00V634.00 M933,640.00V634.00 M934,640.00V635.20 M935,640.00V634.00 M936,640.00V635.20 M937,640.00V635.20 M938,640.00V634.00 M939,640.00V635.20 M940,640.00V635.20 M941,640.00V634.00 M942,641.20V635.20 M943,640.00V635.20 M944,640.00V634.00 M945,640.00V634.00 M946,640.00V635.20 M947,640.00V634.00 M948,640.00V635.20 M949,640.00V635.20 M950,640.00V634.00 M951,640.00V635.20 M952,640.00V635.20 M953,640.00V634.00 M954,640.00V635.20 M955,640.00V635.20 M956,640.00V635.20 M957,640.00V635.20 M958,640.00V634.00 M959,640.00V634.00 M960,640.00V635.20 M961,640.00V635.20 M962,640.00V635.20 M963,640.00V635.20 M964,640.00V634.00 M965,640.00V635.20 M966,640.00V634.00 M967,640.00V634.00 M968,640.00V635.20 M969,640.00V635.20 M970,640.00V635.20 M971,640.00V634.00 M972,640.00V635.20 M973,640.00V634.00 M974,640.00V635.20 M975,640.00V634.00 M976,641.20V634.00 M977,640.00V635.20 M978,640.00V635.20 M979,640.00V634.00 M980,640.00V635.20 M981,640.00V634.00 M982,640.00V634.00 M983,640.00V635.20 M984,640.00V635.20 M985,640.00V635.20 M986,640.00V634.00 M987,640.00V634.00 M988,640.00V635.20 M989,640.00V635.20 M990,640.00V635.20 M991,641.20V635.20 M992,640.00V634.00 M993,640.00V634.00 M994,640.00V635.20 M995,640.00V635.20 M996,640.00V634.00 M997,641.20V632.80 M998,640.00V635.20 M999,640.00V635.20 M1000,640.00V635.20 M1001,640.00V634.00 M1002,640.00V635.20 M1003,641.20V635.20 M1004,640.00V635.20 M1005,640.00V635.20 M1006,640.00V635.20 M1007,640.00V635.20 M1008,640.00V635.20 M1009,640.00V635.20 M1010,640.00V632.80 M1011,640.00V634.00 M1012,640.00V635.20 M1013,640.00V632.80 M1014,641.20V634.00 M1015,640.00V635.20 M1016,640.00V635.20 M1017,640.00V635.20 M1018,640.00V634.00 M1019,640.00V635.20 M1020,640.00V634.00 M1021,640.00V634.00 M1022,640.00V634.00 M1023,640.00V634.00 M1024,640.00V635.20 M1025,640.00V635.20 M1026,640.00V635.20 M1027,640.00V635.20 M1028,640.00V634.00 M1029,640.00V634.00 M1030,640.00V634.00 M1031,640.00V635.20 M1032,640.00V635.20 M1033,640.00V635.20 M1034,640.00V635.20 M1035,640.00V634.00 M1036,640.00V635.20 M1037,640.00V634.00 M1038,640.00V634.00 M1039,640.00V632.80 M1040,640.00V635.20 M1041,640.00V634.00 M1042,640.00V635.20 M1043,640.00V635.20 M1044,640.00V634.00 M1045,640.00V635.20 M1046,640.00V634.00 M1047,640.00V635.20 M1048,640.00V635.20 M1049,640.00V634.00 M1050,640.00V634.00 M1051,640.00V634.00 M1052,640.00V635.20 M1053,640.00V634.00 M1054,640.00V634.00 M1055,640.00V634.00 M1056,640.00V634.00 M1057,641.20V635.20 M1058,640.00V635.20 M1059,640.00V634.00" stroke="#7c3aed" fill="none"/>
<path d="M580.0,520V655" stroke="#777" stroke-dasharray="3 3"/>
<text x="100" y="690" font-family="sans-serif" font-size="12">Saved analog samples; 0 V / 1.65 V / 3.3 V grid. Probe/channel skew not calibrated.</text></svg>